<?xml version="1.0" standalone="no"?>
<svg xmlns="http://www.w3.org/2000/svg" xmlns:xlink="http://www.w3.org/1999/xlink" width="3660pt" height="548pt" viewBox="0.00 0.00 3660.31 548.00">
<g id="graph0" class="graph" transform="translate(4,544) scale(1)" data-name="">
<polygon fill="white" stroke="none" points="-4,4 -4,-544 3656.31,-544 3656.31,4 -4,4" style=""/>
<!-- [root] azurerm_application_insights.application_insights (expand) -->
<g id="node1" class="node" pointer-events="visible" data-name="[root] azurerm_application_insights.application_insights (expand)">

<polygon fill="none" stroke="black" points="2370.42,-252 2072.65,-252 2072.65,-216 2370.42,-216 2370.42,-252" style=""/>
<text text-anchor="middle" x="2221.53" y="-229.8" font-family="Times,serif" font-size="14.00" style="">azurerm_application_insights.application_insights</text>
</g>
<!-- [root] azurerm_resource_group.handball&#45;resource&#45;group (expand) -->
<g id="node3" class="node" pointer-events="visible" data-name="[root] azurerm_resource_group.handball-resource-group (expand)">

<polygon fill="none" stroke="black" points="2370.07,-108 2072.99,-108 2072.99,-72 2370.07,-72 2370.07,-108" style=""/>
<text text-anchor="middle" x="2221.53" y="-85.8" font-family="Times,serif" font-size="14.00" style="">azurerm_resource_group.handball-resource-group</text>
</g>
<!-- [root] azurerm_application_insights.application_insights (expand)&#45;&gt;[root] azurerm_resource_group.handball&#45;resource&#45;group (expand) -->
<g id="edge1" class="edge" data-name="[root] azurerm_application_insights.application_insights (expand)-&gt;[root] azurerm_resource_group.handball-resource-group (expand)">

<path fill="none" stroke="black" d="M2221.53,-215.59C2221.53,-191.61 2221.53,-148.14 2221.53,-119.42" style=""/>
<polygon fill="black" stroke="black" points="2225.03,-119.62 2221.53,-109.62 2218.03,-119.62 2225.03,-119.62" style=""/>
</g>
<!-- [root] azurerm_linux_function_app.handball&#45;linux&#45;function&#45;app (expand) -->
<g id="node2" class="node" pointer-events="visible" data-name="[root] azurerm_linux_function_app.handball-linux-function-app (expand)">

<polygon fill="none" stroke="black" points="2218.38,-396 1878.69,-396 1878.69,-360 2218.38,-360 2218.38,-396" style=""/>
<text text-anchor="middle" x="2048.53" y="-373.8" font-family="Times,serif" font-size="14.00" style="">azurerm_linux_function_app.handball-linux-function-app</text>
</g>
<!-- [root] azurerm_linux_function_app.handball&#45;linux&#45;function&#45;app (expand)&#45;&gt;[root] azurerm_application_insights.application_insights (expand) -->
<g id="edge2" class="edge" data-name="[root] azurerm_linux_function_app.handball-linux-function-app (expand)-&gt;[root] azurerm_application_insights.application_insights (expand)">

<path fill="none" stroke="black" d="M2218.79,-367.89C2339.16,-359.65 2482.42,-345.48 2501.53,-324 2512.17,-312.05 2511.74,-300.32 2501.53,-288 2492.02,-276.52 2429.4,-264.1 2365.79,-254.17" style=""/>
<polygon fill="black" stroke="black" points="2366.66,-250.77 2356.24,-252.71 2365.6,-257.69 2366.66,-250.77" style=""/>
</g>
<!-- [root] azurerm_service_plan.handball&#45;app&#45;service&#45;plan (expand) -->
<g id="node4" class="node" pointer-events="visible" data-name="[root] azurerm_service_plan.handball-app-service-plan (expand)">

<polygon fill="none" stroke="black" points="2678.29,-252 2388.78,-252 2388.78,-216 2678.29,-216 2678.29,-252" style=""/>
<text text-anchor="middle" x="2533.53" y="-229.8" font-family="Times,serif" font-size="14.00" style="">azurerm_service_plan.handball-app-service-plan</text>
</g>
<!-- [root] azurerm_linux_function_app.handball&#45;linux&#45;function&#45;app (expand)&#45;&gt;[root] azurerm_service_plan.handball&#45;app&#45;service&#45;plan (expand) -->
<g id="edge3" class="edge" data-name="[root] azurerm_linux_function_app.handball-linux-function-app (expand)-&gt;[root] azurerm_service_plan.handball-app-service-plan (expand)">

<path fill="none" stroke="black" d="M2218.82,-367.81C2344.59,-359.38 2497.61,-344.98 2519.53,-324 2535.44,-308.78 2538.09,-283.38 2537.25,-263.61" style=""/>
<polygon fill="black" stroke="black" points="2540.74,-263.37 2536.48,-253.67 2533.76,-263.91 2540.74,-263.37" style=""/>
</g>
<!-- [root] azurerm_storage_blob.storage_blob_function (expand) -->
<g id="node6" class="node" pointer-events="visible" data-name="[root] azurerm_storage_blob.storage_blob_function (expand)">

<polygon fill="none" stroke="black" points="2183.68,-324 1913.39,-324 1913.39,-288 2183.68,-288 2183.68,-324" style=""/>
<text text-anchor="middle" x="2048.53" y="-301.8" font-family="Times,serif" font-size="14.00" style="">azurerm_storage_blob.storage_blob_function</text>
</g>
<!-- [root] azurerm_linux_function_app.handball&#45;linux&#45;function&#45;app (expand)&#45;&gt;[root] azurerm_storage_blob.storage_blob_function (expand) -->
<g id="edge4" class="edge" data-name="[root] azurerm_linux_function_app.handball-linux-function-app (expand)-&gt;[root] azurerm_storage_blob.storage_blob_function (expand)">

<path fill="none" stroke="black" d="M2048.53,-359.7C2048.53,-352.41 2048.53,-343.73 2048.53,-335.54" style=""/>
<polygon fill="black" stroke="black" points="2052.03,-335.62 2048.53,-325.62 2045.03,-335.62 2052.03,-335.62" style=""/>
</g>
<!-- [root] azurerm_storage_container.handball&#45;storage&#45;container (expand) -->
<g id="node10" class="node" pointer-events="visible" data-name="[root] azurerm_storage_container.handball-storage-container (expand)">

<polygon fill="none" stroke="black" points="1268.44,-252 946.62,-252 946.62,-216 1268.44,-216 1268.44,-252" style=""/>
<text text-anchor="middle" x="1107.53" y="-229.8" font-family="Times,serif" font-size="14.00" style="">azurerm_storage_container.handball-storage-container</text>
</g>
<!-- [root] azurerm_linux_function_app.handball&#45;linux&#45;function&#45;app (expand)&#45;&gt;[root] azurerm_storage_container.handball&#45;storage&#45;container (expand) -->
<g id="edge5" class="edge" data-name="[root] azurerm_linux_function_app.handball-linux-function-app (expand)-&gt;[root] azurerm_storage_container.handball-storage-container (expand)">

<path fill="none" stroke="black" d="M1878.2,-372.5C1619.53,-364.92 1154.55,-348.03 1126.53,-324 1109.57,-309.45 1105.55,-283.81 1105.35,-263.77" style=""/>
<polygon fill="black" stroke="black" points="1108.85,-264.06 1105.59,-253.98 1101.85,-263.89 1108.85,-264.06" style=""/>
</g>
<!-- [root] data.azurerm_storage_account_blob_container_sas.sas (expand) -->
<g id="node14" class="node" pointer-events="visible" data-name="[root] data.azurerm_storage_account_blob_container_sas.sas (expand)">

<polygon fill="none" stroke="black" points="1895.86,-324 1573.21,-324 1573.21,-288 1895.86,-288 1895.86,-324" style=""/>
<text text-anchor="middle" x="1734.53" y="-301.8" font-family="Times,serif" font-size="14.00" style="">data.azurerm_storage_account_blob_container_sas.sas</text>
</g>
<!-- [root] azurerm_linux_function_app.handball&#45;linux&#45;function&#45;app (expand)&#45;&gt;[root] data.azurerm_storage_account_blob_container_sas.sas (expand) -->
<g id="edge6" class="edge" data-name="[root] azurerm_linux_function_app.handball-linux-function-app (expand)-&gt;[root] data.azurerm_storage_account_blob_container_sas.sas (expand)">

<path fill="none" stroke="black" d="M1970.11,-359.52C1925.72,-349.62 1870.05,-337.21 1823.97,-326.94" style=""/>
<polygon fill="black" stroke="black" points="1824.77,-323.53 1814.25,-324.77 1823.25,-330.36 1824.77,-323.53" style=""/>
</g>
<!-- [root] local.node_version (expand) -->
<g id="node19" class="node" pointer-events="visible" data-name="[root] local.node_version (expand)">

<ellipse fill="none" stroke="black" cx="2347.53" cy="-306" rx="145.26" ry="18" style=""/>
<text text-anchor="middle" x="2347.53" y="-301.8" font-family="Times,serif" font-size="14.00" style="">[root] local.node_version (expand)</text>
</g>
<!-- [root] azurerm_linux_function_app.handball&#45;linux&#45;function&#45;app (expand)&#45;&gt;[root] local.node_version (expand) -->
<g id="edge7" class="edge" data-name="[root] azurerm_linux_function_app.handball-linux-function-app (expand)-&gt;[root] local.node_version (expand)">

<path fill="none" stroke="black" d="M2123.21,-359.52C2168.11,-349 2225.15,-335.65 2270.47,-325.04" style=""/>
<polygon fill="black" stroke="black" points="2271.02,-328.51 2279.96,-322.82 2269.42,-321.69 2271.02,-328.51" style=""/>
</g>
<!-- [root] provider[&quot;registry.terraform.io/hashicorp/azurerm&quot;] -->
<g id="node17" class="node" pointer-events="visible" data-name="[root] provider[&quot;registry.terraform.io/hashicorp/azurerm&quot;]">

<polygon fill="none" stroke="black" points="1780.53,-36 1482.51,-18 1780.53,0 2078.56,-18 1780.53,-36" style=""/>
<text text-anchor="middle" x="1780.53" y="-13.8" font-family="Times,serif" font-size="14.00" style="">provider["registry.terraform.io/hashicorp/azurerm"]</text>
</g>
<!-- [root] azurerm_resource_group.handball&#45;resource&#45;group (expand)&#45;&gt;[root] provider[&quot;registry.terraform.io/hashicorp/azurerm&quot;] -->
<g id="edge10" class="edge" data-name="[root] azurerm_resource_group.handball-resource-group (expand)-&gt;[root] provider[&quot;registry.terraform.io/hashicorp/azurerm&quot;]">

<path fill="none" stroke="black" d="M2111.39,-71.52C2037.44,-59.78 1941.18,-44.5 1871.57,-33.45" style=""/>
<polygon fill="black" stroke="black" points="1872.12,-29.99 1861.69,-31.88 1871.02,-36.91 1872.12,-29.99" style=""/>
</g>
<!-- [root] local.location (expand) -->
<g id="node20" class="node" pointer-events="visible" data-name="[root] local.location (expand)">

<ellipse fill="none" stroke="black" cx="2221.53" cy="-18" rx="124.42" ry="18" style=""/>
<text text-anchor="middle" x="2221.53" y="-13.8" font-family="Times,serif" font-size="14.00" style="">[root] local.location (expand)</text>
</g>
<!-- [root] azurerm_resource_group.handball&#45;resource&#45;group (expand)&#45;&gt;[root] local.location (expand) -->
<g id="edge8" class="edge" data-name="[root] azurerm_resource_group.handball-resource-group (expand)-&gt;[root] local.location (expand)">

<path fill="none" stroke="black" d="M2221.53,-71.7C2221.53,-64.41 2221.53,-55.73 2221.53,-47.54" style=""/>
<polygon fill="black" stroke="black" points="2225.03,-47.62 2221.53,-37.62 2218.03,-47.62 2225.03,-47.62" style=""/>
</g>
<!-- [root] local.name (expand) -->
<g id="node21" class="node" pointer-events="visible" data-name="[root] local.name (expand)">

<ellipse fill="none" stroke="black" cx="2478.53" cy="-18" rx="114.03" ry="18" style=""/>
<text text-anchor="middle" x="2478.53" y="-13.8" font-family="Times,serif" font-size="14.00" style="">[root] local.name (expand)</text>
</g>
<!-- [root] azurerm_resource_group.handball&#45;resource&#45;group (expand)&#45;&gt;[root] local.name (expand) -->
<g id="edge9" class="edge" data-name="[root] azurerm_resource_group.handball-resource-group (expand)-&gt;[root] local.name (expand)">

<path fill="none" stroke="black" d="M2285.72,-71.52C2324.32,-61 2373.34,-47.65 2412.3,-37.04" style=""/>
<polygon fill="black" stroke="black" points="2412.81,-40.53 2421.54,-34.52 2410.97,-33.77 2412.81,-40.53" style=""/>
</g>
<!-- [root] azurerm_service_plan.handball&#45;app&#45;service&#45;plan (expand)&#45;&gt;[root] azurerm_resource_group.handball&#45;resource&#45;group (expand) -->
<g id="edge11" class="edge" data-name="[root] azurerm_service_plan.handball-app-service-plan (expand)-&gt;[root] azurerm_resource_group.handball-resource-group (expand)">

<path fill="none" stroke="black" d="M2495.28,-215.59C2438.52,-189.75 2332.04,-141.29 2269.93,-113.03" style=""/>
<polygon fill="black" stroke="black" points="2271.54,-109.92 2260.99,-108.96 2268.64,-116.29 2271.54,-109.92" style=""/>
</g>
<!-- [root] azurerm_storage_account.handball&#45;storage&#45;account (expand) -->
<g id="node5" class="node" pointer-events="visible" data-name="[root] azurerm_storage_account.handball-storage-account (expand)">

<polygon fill="none" stroke="black" points="1272.84,-180 968.23,-180 968.23,-144 1272.84,-144 1272.84,-180" style=""/>
<text text-anchor="middle" x="1120.53" y="-157.8" font-family="Times,serif" font-size="14.00" style="">azurerm_storage_account.handball-storage-account</text>
</g>
<!-- [root] azurerm_storage_account.handball&#45;storage&#45;account (expand)&#45;&gt;[root] azurerm_resource_group.handball&#45;resource&#45;group (expand) -->
<g id="edge12" class="edge" data-name="[root] azurerm_storage_account.handball-storage-account (expand)-&gt;[root] azurerm_resource_group.handball-resource-group (expand)">

<path fill="none" stroke="black" d="M1273.27,-145.73C1280.46,-145.12 1287.57,-144.54 1294.53,-144 1563.14,-123.21 1876.11,-106.98 2061.05,-98.21" style=""/>
<polygon fill="black" stroke="black" points="2061.16,-101.71 2070.99,-97.74 2060.83,-94.72 2061.16,-101.71" style=""/>
</g>
<!-- [root] azurerm_storage_container.handball&#45;deployments&#45;storage&#45;container (expand) -->
<g id="node9" class="node" pointer-events="visible" data-name="[root] azurerm_storage_container.handball-deployments-storage-container (expand)">

<polygon fill="none" stroke="black" points="2054.65,-252 1656.42,-252 1656.42,-216 2054.65,-216 2054.65,-252" style=""/>
<text text-anchor="middle" x="1855.53" y="-229.8" font-family="Times,serif" font-size="14.00" style="">azurerm_storage_container.handball-deployments-storage-container</text>
</g>
<!-- [root] azurerm_storage_blob.storage_blob_function (expand)&#45;&gt;[root] azurerm_storage_container.handball&#45;deployments&#45;storage&#45;container (expand) -->
<g id="edge13" class="edge" data-name="[root] azurerm_storage_blob.storage_blob_function (expand)-&gt;[root] azurerm_storage_container.handball-deployments-storage-container (expand)">

<path fill="none" stroke="black" d="M2000.33,-287.52C1974.21,-278.04 1941.73,-266.26 1914.15,-256.26" style=""/>
<polygon fill="black" stroke="black" points="1915.47,-253.02 1904.88,-252.9 1913.09,-259.6 1915.47,-253.02" style=""/>
</g>
<!-- [root] data.archive_file.function_zip (expand) -->
<g id="node12" class="node" pointer-events="visible" data-name="[root] data.archive_file.function_zip (expand)">

<polygon fill="none" stroke="black" points="2880.46,-252 2696.61,-252 2696.61,-216 2880.46,-216 2880.46,-252" style=""/>
<text text-anchor="middle" x="2788.53" y="-229.8" font-family="Times,serif" font-size="14.00" style="">data.archive_file.function_zip</text>
</g>
<!-- [root] azurerm_storage_blob.storage_blob_function (expand)&#45;&gt;[root] data.archive_file.function_zip (expand) -->
<g id="edge14" class="edge" data-name="[root] azurerm_storage_blob.storage_blob_function (expand)-&gt;[root] data.archive_file.function_zip (expand)">

<path fill="none" stroke="black" d="M2183.97,-288.93C2187.19,-288.61 2190.38,-288.3 2193.53,-288 2409.05,-267.52 2467.06,-277.94 2684.94,-252.25" style=""/>
<polygon fill="black" stroke="black" points="2685.1,-255.75 2694.61,-251.09 2684.27,-248.8 2685.1,-255.75" style=""/>
</g>
<!-- [root] azurerm_storage_blob.website&#45;all&#45;blob (expand) -->
<g id="node7" class="node" pointer-events="visible" data-name="[root] azurerm_storage_blob.website-all-blob (expand)">

<polygon fill="none" stroke="black" points="856.18,-396 620.89,-396 620.89,-360 856.18,-360 856.18,-396" style=""/>
<text text-anchor="middle" x="738.53" y="-373.8" font-family="Times,serif" font-size="14.00" style="">azurerm_storage_blob.website-all-blob</text>
</g>
<!-- [root] azurerm_storage_container.handball&#45;storage&#45;web&#45;container (expand) -->
<g id="node11" class="node" pointer-events="visible" data-name="[root] azurerm_storage_container.handball-storage-web-container (expand)">

<polygon fill="none" stroke="black" points="1079.43,-324 729.64,-324 729.64,-288 1079.43,-288 1079.43,-324" style=""/>
<text text-anchor="middle" x="904.53" y="-301.8" font-family="Times,serif" font-size="14.00" style="">azurerm_storage_container.handball-storage-web-container</text>
</g>
<!-- [root] azurerm_storage_blob.website&#45;all&#45;blob (expand)&#45;&gt;[root] azurerm_storage_container.handball&#45;storage&#45;web&#45;container (expand) -->
<g id="edge15" class="edge" data-name="[root] azurerm_storage_blob.website-all-blob (expand)-&gt;[root] azurerm_storage_container.handball-storage-web-container (expand)">

<path fill="none" stroke="black" d="M779.99,-359.52C802.06,-350.21 829.41,-338.68 852.85,-328.79" style=""/>
<polygon fill="black" stroke="black" points="854.06,-332.08 861.92,-324.97 851.34,-325.63 854.06,-332.08" style=""/>
</g>
<!-- [root] local.contentTypeByFileExtension (expand) -->
<g id="node22" class="node" pointer-events="visible" data-name="[root] local.contentTypeByFileExtension (expand)">

<ellipse fill="none" stroke="black" cx="206.53" cy="-306" rx="206.57" ry="18" style=""/>
<text text-anchor="middle" x="206.53" y="-301.8" font-family="Times,serif" font-size="14.00" style="">[root] local.contentTypeByFileExtension (expand)</text>
</g>
<!-- [root] azurerm_storage_blob.website&#45;all&#45;blob (expand)&#45;&gt;[root] local.contentTypeByFileExtension (expand) -->
<g id="edge16" class="edge" data-name="[root] azurerm_storage_blob.website-all-blob (expand)-&gt;[root] local.contentTypeByFileExtension (expand)">

<path fill="none" stroke="black" d="M620.47,-361.46C533.81,-350.06 416.43,-334.62 328.8,-323.09" style=""/>
<polygon fill="black" stroke="black" points="329.33,-319.63 318.96,-321.79 328.41,-326.57 329.33,-319.63" style=""/>
</g>
<!-- [root] local.websitePath (expand) -->
<g id="node23" class="node" pointer-events="visible" data-name="[root] local.websitePath (expand)">

<ellipse fill="none" stroke="black" cx="571.53" cy="-306" rx="140.04" ry="18" style=""/>
<text text-anchor="middle" x="571.53" y="-301.8" font-family="Times,serif" font-size="14.00" style="">[root] local.websitePath (expand)</text>
</g>
<!-- [root] azurerm_storage_blob.website&#45;all&#45;blob (expand)&#45;&gt;[root] local.websitePath (expand) -->
<g id="edge17" class="edge" data-name="[root] azurerm_storage_blob.website-all-blob (expand)-&gt;[root] local.websitePath (expand)">

<path fill="none" stroke="black" d="M696.82,-359.52C674.02,-349.96 645.61,-338.05 621.61,-327.99" style=""/>
<polygon fill="black" stroke="black" points="623.25,-324.88 612.67,-324.24 620.54,-331.34 623.25,-324.88" style=""/>
</g>
<!-- [root] azurerm_storage_blob.website&#45;fetch&#45;blob (expand) -->
<g id="node8" class="node" pointer-events="visible" data-name="[root] azurerm_storage_blob.website-fetch-blob (expand)">

<polygon fill="none" stroke="black" points="1470.17,-396 1220.9,-396 1220.9,-360 1470.17,-360 1470.17,-396" style=""/>
<text text-anchor="middle" x="1345.53" y="-373.8" font-family="Times,serif" font-size="14.00" style="">azurerm_storage_blob.website-fetch-blob</text>
</g>
<!-- [root] azurerm_storage_blob.website&#45;fetch&#45;blob (expand)&#45;&gt;[root] azurerm_storage_container.handball&#45;storage&#45;web&#45;container (expand) -->
<g id="edge18" class="edge" data-name="[root] azurerm_storage_blob.website-fetch-blob (expand)-&gt;[root] azurerm_storage_container.handball-storage-web-container (expand)">

<path fill="none" stroke="black" d="M1235.39,-359.52C1171.6,-349.39 1091.21,-336.63 1025.64,-326.22" style=""/>
<polygon fill="black" stroke="black" points="1026.34,-322.79 1015.91,-324.68 1025.24,-329.7 1026.34,-322.79" style=""/>
</g>
<!-- [root] data.azurerm_storage_account_blob_container_sas.function_results_sas (expand) -->
<g id="node13" class="node" pointer-events="visible" data-name="[root] data.azurerm_storage_account_blob_container_sas.function_results_sas (expand)">

<polygon fill="none" stroke="black" points="1555.07,-324 1136,-324 1136,-288 1555.07,-288 1555.07,-324" style=""/>
<text text-anchor="middle" x="1345.53" y="-301.8" font-family="Times,serif" font-size="14.00" style="">data.azurerm_storage_account_blob_container_sas.function_results_sas</text>
</g>
<!-- [root] azurerm_storage_blob.website&#45;fetch&#45;blob (expand)&#45;&gt;[root] data.azurerm_storage_account_blob_container_sas.function_results_sas (expand) -->
<g id="edge19" class="edge" data-name="[root] azurerm_storage_blob.website-fetch-blob (expand)-&gt;[root] data.azurerm_storage_account_blob_container_sas.function_results_sas (expand)">

<path fill="none" stroke="black" d="M1345.53,-359.7C1345.53,-352.41 1345.53,-343.73 1345.53,-335.54" style=""/>
<polygon fill="black" stroke="black" points="1349.03,-335.62 1345.53,-325.62 1342.03,-335.62 1349.03,-335.62" style=""/>
</g>
<!-- [root] azurerm_storage_container.handball&#45;deployments&#45;storage&#45;container (expand)&#45;&gt;[root] azurerm_storage_account.handball&#45;storage&#45;account (expand) -->
<g id="edge20" class="edge" data-name="[root] azurerm_storage_container.handball-deployments-storage-container (expand)-&gt;[root] azurerm_storage_account.handball-storage-account (expand)">

<path fill="none" stroke="black" d="M1668.84,-215.51C1559.7,-205.25 1419.3,-191.99 1294.53,-180 1291.28,-179.69 1287.98,-179.37 1284.67,-179.05" style=""/>
<polygon fill="black" stroke="black" points="1285.1,-175.58 1274.81,-178.1 1284.43,-182.54 1285.1,-175.58" style=""/>
</g>
<!-- [root] azurerm_storage_container.handball&#45;storage&#45;container (expand)&#45;&gt;[root] azurerm_storage_account.handball&#45;storage&#45;account (expand) -->
<g id="edge21" class="edge" data-name="[root] azurerm_storage_container.handball-storage-container (expand)-&gt;[root] azurerm_storage_account.handball-storage-account (expand)">

<path fill="none" stroke="black" d="M1110.75,-215.7C1112.12,-208.32 1113.75,-199.52 1115.29,-191.25" style=""/>
<polygon fill="black" stroke="black" points="1118.7,-192.06 1117.08,-181.59 1111.81,-190.79 1118.7,-192.06" style=""/>
</g>
<!-- [root] azurerm_storage_container.handball&#45;storage&#45;web&#45;container (expand)&#45;&gt;[root] azurerm_storage_account.handball&#45;storage&#45;account (expand) -->
<g id="edge22" class="edge" data-name="[root] azurerm_storage_container.handball-storage-web-container (expand)-&gt;[root] azurerm_storage_account.handball-storage-account (expand)">

<path fill="none" stroke="black" d="M906.31,-287.72C909.29,-267.67 917.13,-234.96 937.53,-216 952.35,-202.23 970.54,-192.01 989.64,-184.43" style=""/>
<polygon fill="black" stroke="black" points="990.74,-187.76 998.91,-181.02 988.31,-181.19 990.74,-187.76" style=""/>
</g>
<!-- [root] null_resource.function_dependencies (expand) -->
<g id="node15" class="node" pointer-events="visible" data-name="[root] null_resource.function_dependencies (expand)">

<polygon fill="none" stroke="black" points="3272.79,-180 3048.28,-180 3048.28,-144 3272.79,-144 3272.79,-180" style=""/>
<text text-anchor="middle" x="3160.53" y="-157.8" font-family="Times,serif" font-size="14.00" style="">null_resource.function_dependencies</text>
</g>
<!-- [root] data.archive_file.function_zip (expand)&#45;&gt;[root] null_resource.function_dependencies (expand) -->
<g id="edge23" class="edge" data-name="[root] data.archive_file.function_zip (expand)-&gt;[root] null_resource.function_dependencies (expand)">

<path fill="none" stroke="black" d="M2880.49,-215.7C2933.83,-205.66 3001.17,-192.99 3056.45,-182.58" style=""/>
<polygon fill="black" stroke="black" points="3057.03,-186.04 3066.21,-180.75 3055.74,-179.16 3057.03,-186.04" style=""/>
</g>
<!-- [root] provider[&quot;registry.terraform.io/hashicorp/archive&quot;] -->
<g id="node16" class="node" pointer-events="visible" data-name="[root] provider[&quot;registry.terraform.io/hashicorp/archive&quot;]">

<polygon fill="none" stroke="black" points="2736.53,-180 2442.6,-162 2736.53,-144 3030.46,-162 2736.53,-180" style=""/>
<text text-anchor="middle" x="2736.53" y="-157.8" font-family="Times,serif" font-size="14.00" style="">provider["registry.terraform.io/hashicorp/archive"]</text>
</g>
<!-- [root] data.archive_file.function_zip (expand)&#45;&gt;[root] provider[&quot;registry.terraform.io/hashicorp/archive&quot;] -->
<g id="edge24" class="edge" data-name="[root] data.archive_file.function_zip (expand)-&gt;[root] provider[&quot;registry.terraform.io/hashicorp/archive&quot;]">

<path fill="none" stroke="black" d="M2775.68,-215.7C2769.61,-207.52 2762.24,-197.6 2755.54,-188.58" style=""/>
<polygon fill="black" stroke="black" points="2758.56,-186.78 2749.78,-180.84 2752.94,-190.95 2758.56,-186.78" style=""/>
</g>
<!-- [root] data.azurerm_storage_account_blob_container_sas.function_results_sas (expand)&#45;&gt;[root] azurerm_storage_container.handball&#45;storage&#45;container (expand) -->
<g id="edge25" class="edge" data-name="[root] data.azurerm_storage_account_blob_container_sas.function_results_sas (expand)-&gt;[root] azurerm_storage_container.handball-storage-container (expand)">

<path fill="none" stroke="black" d="M1286.09,-287.52C1253.17,-277.83 1212.05,-265.74 1177.57,-255.6" style=""/>
<polygon fill="black" stroke="black" points="1178.66,-252.27 1168.08,-252.81 1176.69,-258.99 1178.66,-252.27" style=""/>
</g>
<!-- [root] local.two_years_later_date (expand) -->
<g id="node24" class="node" pointer-events="visible" data-name="[root] local.two_years_later_date (expand)">

<ellipse fill="none" stroke="black" cx="1462.53" cy="-234" rx="175.87" ry="18" style=""/>
<text text-anchor="middle" x="1462.53" y="-229.8" font-family="Times,serif" font-size="14.00" style="">[root] local.two_years_later_date (expand)</text>
</g>
<!-- [root] data.azurerm_storage_account_blob_container_sas.function_results_sas (expand)&#45;&gt;[root] local.two_years_later_date (expand) -->
<g id="edge26" class="edge" data-name="[root] data.azurerm_storage_account_blob_container_sas.function_results_sas (expand)-&gt;[root] local.two_years_later_date (expand)">

<path fill="none" stroke="black" d="M1374.76,-287.52C1389.78,-278.53 1408.27,-267.47 1424.4,-257.81" style=""/>
<polygon fill="black" stroke="black" points="1426,-260.93 1432.79,-252.8 1422.41,-254.93 1426,-260.93" style=""/>
</g>
<!-- [root] data.azurerm_storage_account_blob_container_sas.sas (expand)&#45;&gt;[root] azurerm_storage_container.handball&#45;deployments&#45;storage&#45;container (expand) -->
<g id="edge27" class="edge" data-name="[root] data.azurerm_storage_account_blob_container_sas.sas (expand)-&gt;[root] azurerm_storage_container.handball-deployments-storage-container (expand)">

<path fill="none" stroke="black" d="M1764.75,-287.52C1780.32,-278.51 1799.49,-267.42 1816.19,-257.76" style=""/>
<polygon fill="black" stroke="black" points="1817.48,-261.06 1824.39,-253.02 1813.98,-255 1817.48,-261.06" style=""/>
</g>
<!-- [root] data.azurerm_storage_account_blob_container_sas.sas (expand)&#45;&gt;[root] local.two_years_later_date (expand) -->
<g id="edge28" class="edge" data-name="[root] data.azurerm_storage_account_blob_container_sas.sas (expand)-&gt;[root] local.two_years_later_date (expand)">

<path fill="none" stroke="black" d="M1666.6,-287.52C1626.96,-277.32 1576.93,-264.44 1536.33,-253.99" style=""/>
<polygon fill="black" stroke="black" points="1537.43,-250.66 1526.88,-251.56 1535.69,-257.44 1537.43,-250.66" style=""/>
</g>
<!-- [root] provider[&quot;registry.terraform.io/hashicorp/null&quot;] -->
<g id="node18" class="node" pointer-events="visible" data-name="[root] provider[&quot;registry.terraform.io/hashicorp/null&quot;]">

<polygon fill="none" stroke="black" points="3377.53,-108 3102.98,-90 3377.53,-72 3652.09,-90 3377.53,-108" style=""/>
<text text-anchor="middle" x="3377.53" y="-85.8" font-family="Times,serif" font-size="14.00" style="">provider["registry.terraform.io/hashicorp/null"]</text>
</g>
<!-- [root] null_resource.function_dependencies (expand)&#45;&gt;[root] provider[&quot;registry.terraform.io/hashicorp/null&quot;] -->
<g id="edge32" class="edge" data-name="[root] null_resource.function_dependencies (expand)-&gt;[root] provider[&quot;registry.terraform.io/hashicorp/null&quot;]">

<path fill="none" stroke="black" d="M3214.73,-143.52C3247.44,-132.97 3289.02,-119.55 3321.97,-108.92" style=""/>
<polygon fill="black" stroke="black" points="3322.9,-112.3 3331.35,-105.9 3320.75,-105.64 3322.9,-112.3" style=""/>
</g>
<!-- [root] local.functionPath (expand) -->
<g id="node27" class="node" pointer-events="visible" data-name="[root] local.functionPath (expand)">

<ellipse fill="none" stroke="black" cx="2942.53" cy="-90" rx="142.9" ry="18" style=""/>
<text text-anchor="middle" x="2942.53" y="-85.8" font-family="Times,serif" font-size="14.00" style="">[root] local.functionPath (expand)</text>
</g>
<!-- [root] null_resource.function_dependencies (expand)&#45;&gt;[root] local.functionPath (expand) -->
<g id="edge31" class="edge" data-name="[root] null_resource.function_dependencies (expand)-&gt;[root] local.functionPath (expand)">

<path fill="none" stroke="black" d="M3106.08,-143.52C3075.04,-133.55 3036.04,-121.02 3003.91,-110.71" style=""/>
<polygon fill="black" stroke="black" points="3005.33,-107.49 2994.74,-107.76 3003.19,-114.15 3005.33,-107.49" style=""/>
</g>
<!-- [root] local.current_date (expand) -->
<g id="node25" class="node" pointer-events="visible" data-name="[root] local.current_date (expand)">

<ellipse fill="none" stroke="black" cx="1729.53" cy="-162" rx="141.72" ry="18" style=""/>
<text text-anchor="middle" x="1729.53" y="-157.8" font-family="Times,serif" font-size="14.00" style="">[root] local.current_date (expand)</text>
</g>
<!-- [root] local.two_years_later_date (expand)&#45;&gt;[root] local.current_date (expand) -->
<g id="edge29" class="edge" data-name="[root] local.two_years_later_date (expand)-&gt;[root] local.current_date (expand)">

<path fill="none" stroke="black" d="M1524.46,-216.76C1564.62,-206.24 1617.05,-192.49 1658.85,-181.53" style=""/>
<polygon fill="black" stroke="black" points="1659.53,-184.97 1668.32,-179.05 1657.75,-178.2 1659.53,-184.97" style=""/>
</g>
<!-- [root] local.two_years (expand) -->
<g id="node26" class="node" pointer-events="visible" data-name="[root] local.two_years (expand)">

<ellipse fill="none" stroke="black" cx="1436.53" cy="-162" rx="133.08" ry="18" style=""/>
<text text-anchor="middle" x="1436.53" y="-157.8" font-family="Times,serif" font-size="14.00" style="">[root] local.two_years (expand)</text>
</g>
<!-- [root] local.two_years_later_date (expand)&#45;&gt;[root] local.two_years (expand) -->
<g id="edge30" class="edge" data-name="[root] local.two_years_later_date (expand)-&gt;[root] local.two_years (expand)">

<path fill="none" stroke="black" d="M1456.11,-215.7C1453.3,-208.15 1449.95,-199.12 1446.81,-190.68" style=""/>
<polygon fill="black" stroke="black" points="1450.18,-189.68 1443.41,-181.52 1443.61,-192.12 1450.18,-189.68" style=""/>
</g>
<!-- [root] provider[&quot;registry.terraform.io/hashicorp/archive&quot;] (close) -->
<g id="node28" class="node" pointer-events="visible" data-name="[root] provider[&quot;registry.terraform.io/hashicorp/archive&quot;] (close)">

<ellipse fill="none" stroke="black" cx="2634.53" cy="-450" rx="260.56" ry="18" style=""/>
<text text-anchor="middle" x="2634.53" y="-445.8" font-family="Times,serif" font-size="14.00" style="">[root] provider["registry.terraform.io/hashicorp/archive"] (close)</text>
</g>
<!-- [root] provider[&quot;registry.terraform.io/hashicorp/archive&quot;] (close)&#45;&gt;[root] data.archive_file.function_zip (expand) -->
<g id="edge33" class="edge" data-name="[root] provider[&quot;registry.terraform.io/hashicorp/archive&quot;] (close)-&gt;[root] data.archive_file.function_zip (expand)">

<path fill="none" stroke="black" d="M2646.88,-431.85C2673.68,-394.6 2737.39,-306.07 2769.43,-261.54" style=""/>
<polygon fill="black" stroke="black" points="2772.25,-263.62 2775.25,-253.46 2766.57,-259.53 2772.25,-263.62" style=""/>
</g>
<!-- [root] provider[&quot;registry.terraform.io/hashicorp/azurerm&quot;] (close) -->
<g id="node29" class="node" pointer-events="visible" data-name="[root] provider[&quot;registry.terraform.io/hashicorp/azurerm&quot;] (close)">

<ellipse fill="none" stroke="black" cx="1796.53" cy="-450" rx="263.99" ry="18" style=""/>
<text text-anchor="middle" x="1796.53" y="-445.8" font-family="Times,serif" font-size="14.00" style="">[root] provider["registry.terraform.io/hashicorp/azurerm"] (close)</text>
</g>
<!-- [root] provider[&quot;registry.terraform.io/hashicorp/azurerm&quot;] (close)&#45;&gt;[root] azurerm_linux_function_app.handball&#45;linux&#45;function&#45;app (expand) -->
<g id="edge34" class="edge" data-name="[root] provider[&quot;registry.terraform.io/hashicorp/azurerm&quot;] (close)-&gt;[root] azurerm_linux_function_app.handball-linux-function-app (expand)">

<path fill="none" stroke="black" d="M1857.54,-432.05C1892.93,-422.22 1937.76,-409.77 1975.08,-399.4" style=""/>
<polygon fill="black" stroke="black" points="1975.75,-402.85 1984.44,-396.8 1973.87,-396.11 1975.75,-402.85" style=""/>
</g>
<!-- [root] provider[&quot;registry.terraform.io/hashicorp/azurerm&quot;] (close)&#45;&gt;[root] azurerm_storage_blob.website&#45;all&#45;blob (expand) -->
<g id="edge35" class="edge" data-name="[root] provider[&quot;registry.terraform.io/hashicorp/azurerm&quot;] (close)-&gt;[root] azurerm_storage_blob.website-all-blob (expand)">

<path fill="none" stroke="black" d="M1611.94,-436.79C1398.81,-422.69 1053.76,-399.86 867.55,-387.54" style=""/>
<polygon fill="black" stroke="black" points="868.06,-384.06 857.85,-386.89 867.6,-391.05 868.06,-384.06" style=""/>
</g>
<!-- [root] provider[&quot;registry.terraform.io/hashicorp/azurerm&quot;] (close)&#45;&gt;[root] azurerm_storage_blob.website&#45;fetch&#45;blob (expand) -->
<g id="edge36" class="edge" data-name="[root] provider[&quot;registry.terraform.io/hashicorp/azurerm&quot;] (close)-&gt;[root] azurerm_storage_blob.website-fetch-blob (expand)">

<path fill="none" stroke="black" d="M1693.35,-432.98C1626.71,-422.64 1539.63,-409.13 1469.28,-398.21" style=""/>
<polygon fill="black" stroke="black" points="1470.05,-394.78 1459.63,-396.71 1468.98,-401.7 1470.05,-394.78" style=""/>
</g>
<!-- [root] provider[&quot;registry.terraform.io/hashicorp/null&quot;] (close) -->
<g id="node30" class="node" pointer-events="visible" data-name="[root] provider[&quot;registry.terraform.io/hashicorp/null&quot;] (close)">

<ellipse fill="none" stroke="black" cx="3160.53" cy="-450" rx="247.27" ry="18" style=""/>
<text text-anchor="middle" x="3160.53" y="-445.8" font-family="Times,serif" font-size="14.00" style="">[root] provider["registry.terraform.io/hashicorp/null"] (close)</text>
</g>
<!-- [root] provider[&quot;registry.terraform.io/hashicorp/null&quot;] (close)&#45;&gt;[root] null_resource.function_dependencies (expand) -->
<g id="edge37" class="edge" data-name="[root] provider[&quot;registry.terraform.io/hashicorp/null&quot;] (close)-&gt;[root] null_resource.function_dependencies (expand)">

<path fill="none" stroke="black" d="M3160.53,-431.54C3160.53,-383.76 3160.53,-250.51 3160.53,-191.61" style=""/>
<polygon fill="black" stroke="black" points="3164.03,-191.75 3160.53,-181.75 3157.03,-191.75 3164.03,-191.75" style=""/>
</g>
<!-- [root] root -->
<g id="node31" class="node" pointer-events="visible" data-name="[root] root">

<ellipse fill="none" stroke="black" cx="2634.53" cy="-522" rx="50.99" ry="18" style=""/>
<text text-anchor="middle" x="2634.53" y="-517.8" font-family="Times,serif" font-size="14.00" style="">[root] root</text>
</g>
<!-- [root] root&#45;&gt;[root] provider[&quot;registry.terraform.io/hashicorp/archive&quot;] (close) -->
<g id="edge38" class="edge" data-name="[root] root-&gt;[root] provider[&quot;registry.terraform.io/hashicorp/archive&quot;] (close)">

<path fill="none" stroke="black" d="M2634.53,-503.7C2634.53,-496.41 2634.53,-487.73 2634.53,-479.54" style=""/>
<polygon fill="black" stroke="black" points="2638.03,-479.62 2634.53,-469.62 2631.03,-479.62 2638.03,-479.62" style=""/>
</g>
<!-- [root] root&#45;&gt;[root] provider[&quot;registry.terraform.io/hashicorp/azurerm&quot;] (close) -->
<g id="edge39" class="edge" data-name="[root] root-&gt;[root] provider[&quot;registry.terraform.io/hashicorp/azurerm&quot;] (close)">

<path fill="none" stroke="black" d="M2585.24,-516.88C2467.37,-507.04 2164.57,-481.74 1970.3,-465.52" style=""/>
<polygon fill="black" stroke="black" points="1970.88,-462.05 1960.62,-464.71 1970.29,-469.03 1970.88,-462.05" style=""/>
</g>
<!-- [root] root&#45;&gt;[root] provider[&quot;registry.terraform.io/hashicorp/null&quot;] (close) -->
<g id="edge40" class="edge" data-name="[root] root-&gt;[root] provider[&quot;registry.terraform.io/hashicorp/null&quot;] (close)">

<path fill="none" stroke="black" d="M2681.67,-514.73C2760.25,-504.27 2920.57,-482.93 3034.02,-467.84" style=""/>
<polygon fill="black" stroke="black" points="3034.24,-471.34 3043.69,-466.55 3033.31,-464.4 3034.24,-471.34" style=""/>
</g>
</g>
</svg>