<?xml version="1.0" standalone="no"?>
<svg xmlns="http://www.w3.org/2000/svg" xmlns:xlink="http://www.w3.org/1999/xlink" width="2187pt" height="548pt" viewBox="0.00 0.00 2186.97 548.00">
<g id="graph0" class="graph" transform="translate(4,544) scale(1)" data-name="">
<polygon fill="white" stroke="none" points="-4,4 -4,-544 2182.97,-544 2182.97,4 -4,4" style=""/>
<!-- [root] azurerm_application_insights.application_insights (expand) -->
<g id="node1" class="node" pointer-events="visible" data-name="[root] azurerm_application_insights.application_insights (expand)">

<polygon fill="none" stroke="black" points="576.15,-252 278.38,-252 278.38,-216 576.15,-216 576.15,-252" style=""/>
<text text-anchor="middle" x="427.26" y="-229.8" font-family="Times,serif" font-size="14.00" style="">azurerm_application_insights.application_insights</text>
</g>
<!-- [root] azurerm_resource_group.handball&#45;resource&#45;group (expand) -->
<g id="node3" class="node" pointer-events="visible" data-name="[root] azurerm_resource_group.handball-resource-group (expand)">

<polygon fill="none" stroke="black" points="887.8,-108 590.72,-108 590.72,-72 887.8,-72 887.8,-108" style=""/>
<text text-anchor="middle" x="739.26" y="-85.8" font-family="Times,serif" font-size="14.00" style="">azurerm_resource_group.handball-resource-group</text>
</g>
<!-- [root] azurerm_application_insights.application_insights (expand)&#45;&gt;[root] azurerm_resource_group.handball&#45;resource&#45;group (expand) -->
<g id="edge1" class="edge" data-name="[root] azurerm_application_insights.application_insights (expand)-&gt;[root] azurerm_resource_group.handball-resource-group (expand)">

<path fill="none" stroke="black" d="M465.52,-215.59C522.28,-189.75 628.76,-141.29 690.87,-113.03" style=""/>
<polygon fill="black" stroke="black" points="692.15,-116.29 699.8,-108.96 689.25,-109.92 692.15,-116.29" style=""/>
</g>
<!-- [root] azurerm_linux_function_app.handball&#45;linux&#45;function&#45;app (expand) -->
<g id="node2" class="node" pointer-events="visible" data-name="[root] azurerm_linux_function_app.handball-linux-function-app (expand)">

<polygon fill="none" stroke="black" points="1163.11,-396 823.42,-396 823.42,-360 1163.11,-360 1163.11,-396" style=""/>
<text text-anchor="middle" x="993.26" y="-373.8" font-family="Times,serif" font-size="14.00" style="">azurerm_linux_function_app.handball-linux-function-app</text>
</g>
<!-- [root] azurerm_linux_function_app.handball&#45;linux&#45;function&#45;app (expand)&#45;&gt;[root] azurerm_application_insights.application_insights (expand) -->
<g id="edge2" class="edge" data-name="[root] azurerm_linux_function_app.handball-linux-function-app (expand)-&gt;[root] azurerm_application_insights.application_insights (expand)">

<path fill="none" stroke="black" d="M837.03,-359.55C779.62,-351.28 714.45,-339.69 656.26,-324 591.83,-306.63 520.62,-277.25 474.98,-257.03" style=""/>
<polygon fill="black" stroke="black" points="476.46,-253.85 465.9,-252.97 473.6,-260.24 476.46,-253.85" style=""/>
</g>
<!-- [root] azurerm_service_plan.handball&#45;app&#45;service&#45;plan (expand) -->
<g id="node4" class="node" pointer-events="visible" data-name="[root] azurerm_service_plan.handball-app-service-plan (expand)">

<polygon fill="none" stroke="black" points="884.02,-252 594.51,-252 594.51,-216 884.02,-216 884.02,-252" style=""/>
<text text-anchor="middle" x="739.26" y="-229.8" font-family="Times,serif" font-size="14.00" style="">azurerm_service_plan.handball-app-service-plan</text>
</g>
<!-- [root] azurerm_linux_function_app.handball&#45;linux&#45;function&#45;app (expand)&#45;&gt;[root] azurerm_service_plan.handball&#45;app&#45;service&#45;plan (expand) -->
<g id="edge3" class="edge" data-name="[root] azurerm_linux_function_app.handball-linux-function-app (expand)-&gt;[root] azurerm_service_plan.handball-app-service-plan (expand)">

<path fill="none" stroke="black" d="M823.1,-369.26C754.97,-362.26 687.56,-349.02 666.26,-324 655.89,-311.81 659,-302.25 666.26,-288 672.26,-276.24 682.22,-266.47 692.89,-258.67" style=""/>
<polygon fill="black" stroke="black" points="694.75,-261.63 701.11,-253.16 690.85,-255.82 694.75,-261.63" style=""/>
</g>
<!-- [root] azurerm_storage_blob.storage_blob_function (expand) -->
<g id="node6" class="node" pointer-events="visible" data-name="[root] azurerm_storage_blob.storage_blob_function (expand)">

<polygon fill="none" stroke="black" points="1285.41,-324 1015.12,-324 1015.12,-288 1285.41,-288 1285.41,-324" style=""/>
<text text-anchor="middle" x="1150.26" y="-301.8" font-family="Times,serif" font-size="14.00" style="">azurerm_storage_blob.storage_blob_function</text>
</g>
<!-- [root] azurerm_linux_function_app.handball&#45;linux&#45;function&#45;app (expand)&#45;&gt;[root] azurerm_storage_blob.storage_blob_function (expand) -->
<g id="edge4" class="edge" data-name="[root] azurerm_linux_function_app.handball-linux-function-app (expand)-&gt;[root] azurerm_storage_blob.storage_blob_function (expand)">

<path fill="none" stroke="black" d="M1032.48,-359.52C1053.16,-350.29 1078.75,-338.89 1100.78,-329.06" style=""/>
<polygon fill="black" stroke="black" points="1102.19,-332.27 1109.9,-325 1099.34,-325.87 1102.19,-332.27" style=""/>
</g>
<!-- [root] data.azurerm_storage_account_blob_container_sas.sas (expand) -->
<g id="node9" class="node" pointer-events="visible" data-name="[root] data.azurerm_storage_account_blob_container_sas.sas (expand)">

<polygon fill="none" stroke="black" points="997.59,-324 674.94,-324 674.94,-288 997.59,-288 997.59,-324" style=""/>
<text text-anchor="middle" x="836.26" y="-301.8" font-family="Times,serif" font-size="14.00" style="">data.azurerm_storage_account_blob_container_sas.sas</text>
</g>
<!-- [root] azurerm_linux_function_app.handball&#45;linux&#45;function&#45;app (expand)&#45;&gt;[root] data.azurerm_storage_account_blob_container_sas.sas (expand) -->
<g id="edge5" class="edge" data-name="[root] azurerm_linux_function_app.handball-linux-function-app (expand)-&gt;[root] data.azurerm_storage_account_blob_container_sas.sas (expand)">

<path fill="none" stroke="black" d="M954.05,-359.52C933.37,-350.29 907.78,-338.89 885.74,-329.06" style=""/>
<polygon fill="black" stroke="black" points="887.19,-325.87 876.63,-325 884.34,-332.27 887.19,-325.87" style=""/>
</g>
<!-- [root] local.node_version (expand) -->
<g id="node14" class="node" pointer-events="visible" data-name="[root] local.node_version (expand)">

<ellipse fill="none" stroke="black" cx="1449.26" cy="-306" rx="145.26" ry="18" style=""/>
<text text-anchor="middle" x="1449.26" y="-301.8" font-family="Times,serif" font-size="14.00" style="">[root] local.node_version (expand)</text>
</g>
<!-- [root] azurerm_linux_function_app.handball&#45;linux&#45;function&#45;app (expand)&#45;&gt;[root] local.node_version (expand) -->
<g id="edge6" class="edge" data-name="[root] azurerm_linux_function_app.handball-linux-function-app (expand)-&gt;[root] local.node_version (expand)">

<path fill="none" stroke="black" d="M1107.16,-359.52C1181.52,-348.1 1277.72,-333.33 1349.15,-322.37" style=""/>
<polygon fill="black" stroke="black" points="1349.55,-325.85 1358.9,-320.87 1348.49,-318.93 1349.55,-325.85" style=""/>
</g>
<!-- [root] provider[&quot;registry.terraform.io/hashicorp/azurerm&quot;] -->
<g id="node12" class="node" pointer-events="visible" data-name="[root] provider[&quot;registry.terraform.io/hashicorp/azurerm&quot;]">

<polygon fill="none" stroke="black" points="298.26,-36 0.24,-18 298.26,0 596.29,-18 298.26,-36" style=""/>
<text text-anchor="middle" x="298.26" y="-13.8" font-family="Times,serif" font-size="14.00" style="">provider["registry.terraform.io/hashicorp/azurerm"]</text>
</g>
<!-- [root] azurerm_resource_group.handball&#45;resource&#45;group (expand)&#45;&gt;[root] provider[&quot;registry.terraform.io/hashicorp/azurerm&quot;] -->
<g id="edge9" class="edge" data-name="[root] azurerm_resource_group.handball-resource-group (expand)-&gt;[root] provider[&quot;registry.terraform.io/hashicorp/azurerm&quot;]">

<path fill="none" stroke="black" d="M629.12,-71.52C555.17,-59.78 458.91,-44.5 389.3,-33.45" style=""/>
<polygon fill="black" stroke="black" points="389.85,-29.99 379.42,-31.88 388.75,-36.91 389.85,-29.99" style=""/>
</g>
<!-- [root] local.location (expand) -->
<g id="node15" class="node" pointer-events="visible" data-name="[root] local.location (expand)">

<ellipse fill="none" stroke="black" cx="739.26" cy="-18" rx="124.42" ry="18" style=""/>
<text text-anchor="middle" x="739.26" y="-13.8" font-family="Times,serif" font-size="14.00" style="">[root] local.location (expand)</text>
</g>
<!-- [root] azurerm_resource_group.handball&#45;resource&#45;group (expand)&#45;&gt;[root] local.location (expand) -->
<g id="edge7" class="edge" data-name="[root] azurerm_resource_group.handball-resource-group (expand)-&gt;[root] local.location (expand)">

<path fill="none" stroke="black" d="M739.26,-71.7C739.26,-64.41 739.26,-55.73 739.26,-47.54" style=""/>
<polygon fill="black" stroke="black" points="742.76,-47.62 739.26,-37.62 735.76,-47.62 742.76,-47.62" style=""/>
</g>
<!-- [root] local.name (expand) -->
<g id="node16" class="node" pointer-events="visible" data-name="[root] local.name (expand)">

<ellipse fill="none" stroke="black" cx="996.26" cy="-18" rx="114.03" ry="18" style=""/>
<text text-anchor="middle" x="996.26" y="-13.8" font-family="Times,serif" font-size="14.00" style="">[root] local.name (expand)</text>
</g>
<!-- [root] azurerm_resource_group.handball&#45;resource&#45;group (expand)&#45;&gt;[root] local.name (expand) -->
<g id="edge8" class="edge" data-name="[root] azurerm_resource_group.handball-resource-group (expand)-&gt;[root] local.name (expand)">

<path fill="none" stroke="black" d="M803.45,-71.52C842.05,-61 891.07,-47.65 930.03,-37.04" style=""/>
<polygon fill="black" stroke="black" points="930.54,-40.53 939.27,-34.52 928.7,-33.77 930.54,-40.53" style=""/>
</g>
<!-- [root] azurerm_service_plan.handball&#45;app&#45;service&#45;plan (expand)&#45;&gt;[root] azurerm_resource_group.handball&#45;resource&#45;group (expand) -->
<g id="edge10" class="edge" data-name="[root] azurerm_service_plan.handball-app-service-plan (expand)-&gt;[root] azurerm_resource_group.handball-resource-group (expand)">

<path fill="none" stroke="black" d="M739.26,-215.59C739.26,-191.61 739.26,-148.14 739.26,-119.42" style=""/>
<polygon fill="black" stroke="black" points="742.76,-119.62 739.26,-109.62 735.76,-119.62 742.76,-119.62" style=""/>
</g>
<!-- [root] azurerm_storage_account.handball&#45;storage&#45;account (expand) -->
<g id="node5" class="node" pointer-events="visible" data-name="[root] azurerm_storage_account.handball-storage-account (expand)">

<polygon fill="none" stroke="black" points="1079.57,-180 774.96,-180 774.96,-144 1079.57,-144 1079.57,-180" style=""/>
<text text-anchor="middle" x="927.26" y="-157.8" font-family="Times,serif" font-size="14.00" style="">azurerm_storage_account.handball-storage-account</text>
</g>
<!-- [root] azurerm_storage_account.handball&#45;storage&#45;account (expand)&#45;&gt;[root] azurerm_resource_group.handball&#45;resource&#45;group (expand) -->
<g id="edge11" class="edge" data-name="[root] azurerm_storage_account.handball-storage-account (expand)-&gt;[root] azurerm_resource_group.handball-resource-group (expand)">

<path fill="none" stroke="black" d="M880.31,-143.52C854.98,-134.08 823.51,-122.37 796.72,-112.39" style=""/>
<polygon fill="black" stroke="black" points="797.96,-109.12 787.36,-108.91 795.51,-115.68 797.96,-109.12" style=""/>
</g>
<!-- [root] azurerm_storage_container.handball&#45;storage&#45;container (expand) -->
<g id="node7" class="node" pointer-events="visible" data-name="[root] azurerm_storage_container.handball-storage-container (expand)">

<polygon fill="none" stroke="black" points="1224.17,-252 902.36,-252 902.36,-216 1224.17,-216 1224.17,-252" style=""/>
<text text-anchor="middle" x="1063.26" y="-229.8" font-family="Times,serif" font-size="14.00" style="">azurerm_storage_container.handball-storage-container</text>
</g>
<!-- [root] azurerm_storage_blob.storage_blob_function (expand)&#45;&gt;[root] azurerm_storage_container.handball&#45;storage&#45;container (expand) -->
<g id="edge12" class="edge" data-name="[root] azurerm_storage_blob.storage_blob_function (expand)-&gt;[root] azurerm_storage_container.handball-storage-container (expand)">

<path fill="none" stroke="black" d="M1128.76,-287.7C1118.2,-279.2 1105.29,-268.81 1093.73,-259.51" style=""/>
<polygon fill="black" stroke="black" points="1095.99,-256.84 1086,-253.3 1091.6,-262.29 1095.99,-256.84" style=""/>
</g>
<!-- [root] data.archive_file.function_zip (expand) -->
<g id="node8" class="node" pointer-events="visible" data-name="[root] data.archive_file.function_zip (expand)">

<polygon fill="none" stroke="black" points="1644.19,-252 1460.34,-252 1460.34,-216 1644.19,-216 1644.19,-252" style=""/>
<text text-anchor="middle" x="1552.26" y="-229.8" font-family="Times,serif" font-size="14.00" style="">data.archive_file.function_zip</text>
</g>
<!-- [root] azurerm_storage_blob.storage_blob_function (expand)&#45;&gt;[root] data.archive_file.function_zip (expand) -->
<g id="edge13" class="edge" data-name="[root] azurerm_storage_blob.storage_blob_function (expand)-&gt;[root] data.archive_file.function_zip (expand)">

<path fill="none" stroke="black" d="M1250.67,-287.52C1311.09,-276.99 1387.86,-263.63 1448.82,-253.01" style=""/>
<polygon fill="black" stroke="black" points="1449.27,-256.49 1458.52,-251.32 1448.07,-249.59 1449.27,-256.49" style=""/>
</g>
<!-- [root] azurerm_storage_container.handball&#45;storage&#45;container (expand)&#45;&gt;[root] azurerm_storage_account.handball&#45;storage&#45;account (expand) -->
<g id="edge14" class="edge" data-name="[root] azurerm_storage_container.handball-storage-container (expand)-&gt;[root] azurerm_storage_account.handball-storage-account (expand)">

<path fill="none" stroke="black" d="M1029.3,-215.52C1011.64,-206.43 989.85,-195.22 970.96,-185.49" style=""/>
<polygon fill="black" stroke="black" points="972.64,-182.42 962.14,-180.95 969.43,-188.64 972.64,-182.42" style=""/>
</g>
<!-- [root] null_resource.function_dependencies (expand) -->
<g id="node10" class="node" pointer-events="visible" data-name="[root] null_resource.function_dependencies (expand)">

<polygon fill="none" stroke="black" points="1931.52,-180 1707.01,-180 1707.01,-144 1931.52,-144 1931.52,-180" style=""/>
<text text-anchor="middle" x="1819.26" y="-157.8" font-family="Times,serif" font-size="14.00" style="">null_resource.function_dependencies</text>
</g>
<!-- [root] data.archive_file.function_zip (expand)&#45;&gt;[root] null_resource.function_dependencies (expand) -->
<g id="edge15" class="edge" data-name="[root] data.archive_file.function_zip (expand)-&gt;[root] null_resource.function_dependencies (expand)">

<path fill="none" stroke="black" d="M1618.95,-215.52C1656.28,-205.73 1703.01,-193.48 1741.94,-183.27" style=""/>
<polygon fill="black" stroke="black" points="1742.72,-186.69 1751.5,-180.77 1740.94,-179.92 1742.72,-186.69" style=""/>
</g>
<!-- [root] provider[&quot;registry.terraform.io/hashicorp/archive&quot;] -->
<g id="node11" class="node" pointer-events="visible" data-name="[root] provider[&quot;registry.terraform.io/hashicorp/archive&quot;]">

<polygon fill="none" stroke="black" points="1395.26,-180 1101.33,-162 1395.26,-144 1689.19,-162 1395.26,-180" style=""/>
<text text-anchor="middle" x="1395.26" y="-157.8" font-family="Times,serif" font-size="14.00" style="">provider["registry.terraform.io/hashicorp/archive"]</text>
</g>
<!-- [root] data.archive_file.function_zip (expand)&#45;&gt;[root] provider[&quot;registry.terraform.io/hashicorp/archive&quot;] -->
<g id="edge16" class="edge" data-name="[root] data.archive_file.function_zip (expand)-&gt;[root] provider[&quot;registry.terraform.io/hashicorp/archive&quot;]">

<path fill="none" stroke="black" d="M1513.05,-215.52C1490.84,-205.61 1462.98,-193.19 1439.92,-182.91" style=""/>
<polygon fill="black" stroke="black" points="1441.65,-179.85 1431.09,-178.97 1438.8,-186.24 1441.65,-179.85" style=""/>
</g>
<!-- [root] data.azurerm_storage_account_blob_container_sas.sas (expand)&#45;&gt;[root] azurerm_storage_container.handball&#45;storage&#45;container (expand) -->
<g id="edge17" class="edge" data-name="[root] data.azurerm_storage_account_blob_container_sas.sas (expand)-&gt;[root] azurerm_storage_container.handball-storage-container (expand)">

<path fill="none" stroke="black" d="M892.96,-287.52C924.23,-277.88 963.24,-265.84 996.03,-255.73" style=""/>
<polygon fill="black" stroke="black" points="996.93,-259.12 1005.45,-252.83 994.86,-252.43 996.93,-259.12" style=""/>
</g>
<!-- [root] provider[&quot;registry.terraform.io/hashicorp/null&quot;] -->
<g id="node13" class="node" pointer-events="visible" data-name="[root] provider[&quot;registry.terraform.io/hashicorp/null&quot;]">

<polygon fill="none" stroke="black" points="1601.26,-108 1326.71,-90 1601.26,-72 1875.82,-90 1601.26,-108" style=""/>
<text text-anchor="middle" x="1601.26" y="-85.8" font-family="Times,serif" font-size="14.00" style="">provider["registry.terraform.io/hashicorp/null"]</text>
</g>
<!-- [root] null_resource.function_dependencies (expand)&#45;&gt;[root] provider[&quot;registry.terraform.io/hashicorp/null&quot;] -->
<g id="edge19" class="edge" data-name="[root] null_resource.function_dependencies (expand)-&gt;[root] provider[&quot;registry.terraform.io/hashicorp/null&quot;]">

<path fill="none" stroke="black" d="M1764.82,-143.52C1731.96,-132.97 1690.19,-119.55 1657.08,-108.92" style=""/>
<polygon fill="black" stroke="black" points="1658.25,-105.62 1647.66,-105.9 1656.11,-112.29 1658.25,-105.62" style=""/>
</g>
<!-- [root] local.functionPath (expand) -->
<g id="node17" class="node" pointer-events="visible" data-name="[root] local.functionPath (expand)">

<ellipse fill="none" stroke="black" cx="2036.26" cy="-90" rx="142.9" ry="18" style=""/>
<text text-anchor="middle" x="2036.26" y="-85.8" font-family="Times,serif" font-size="14.00" style="">[root] local.functionPath (expand)</text>
</g>
<!-- [root] null_resource.function_dependencies (expand)&#45;&gt;[root] local.functionPath (expand) -->
<g id="edge18" class="edge" data-name="[root] null_resource.function_dependencies (expand)-&gt;[root] local.functionPath (expand)">

<path fill="none" stroke="black" d="M1873.46,-143.52C1904.37,-133.55 1943.19,-121.02 1975.17,-110.71" style=""/>
<polygon fill="black" stroke="black" points="1975.85,-114.17 1984.29,-107.77 1973.7,-107.5 1975.85,-114.17" style=""/>
</g>
<!-- [root] provider[&quot;registry.terraform.io/hashicorp/archive&quot;] (close) -->
<g id="node18" class="node" pointer-events="visible" data-name="[root] provider[&quot;registry.terraform.io/hashicorp/archive&quot;] (close)">

<ellipse fill="none" stroke="black" cx="1530.26" cy="-378" rx="260.56" ry="18" style=""/>
<text text-anchor="middle" x="1530.26" y="-373.8" font-family="Times,serif" font-size="14.00" style="">[root] provider["registry.terraform.io/hashicorp/archive"] (close)</text>
</g>
<!-- [root] provider[&quot;registry.terraform.io/hashicorp/archive&quot;] (close)&#45;&gt;[root] data.archive_file.function_zip (expand) -->
<g id="edge20" class="edge" data-name="[root] provider[&quot;registry.terraform.io/hashicorp/archive&quot;] (close)-&gt;[root] data.archive_file.function_zip (expand)">

<path fill="none" stroke="black" d="M1567.16,-359.69C1581.13,-351.08 1595.51,-339.21 1603.26,-324 1610.53,-309.75 1609.24,-302.84 1603.26,-288 1599.08,-277.63 1591.79,-268.15 1584.01,-260.17" style=""/>
<polygon fill="black" stroke="black" points="1586.6,-257.8 1576.93,-253.46 1581.78,-262.88 1586.6,-257.8" style=""/>
</g>
<!-- [root] provider[&quot;registry.terraform.io/hashicorp/azurerm&quot;] (close) -->
<g id="node19" class="node" pointer-events="visible" data-name="[root] provider[&quot;registry.terraform.io/hashicorp/azurerm&quot;] (close)">

<ellipse fill="none" stroke="black" cx="1157.26" cy="-450" rx="263.99" ry="18" style=""/>
<text text-anchor="middle" x="1157.26" y="-445.8" font-family="Times,serif" font-size="14.00" style="">[root] provider["registry.terraform.io/hashicorp/azurerm"] (close)</text>
</g>
<!-- [root] provider[&quot;registry.terraform.io/hashicorp/azurerm&quot;] (close)&#45;&gt;[root] azurerm_linux_function_app.handball&#45;linux&#45;function&#45;app (expand) -->
<g id="edge21" class="edge" data-name="[root] provider[&quot;registry.terraform.io/hashicorp/azurerm&quot;] (close)-&gt;[root] azurerm_linux_function_app.handball-linux-function-app (expand)">

<path fill="none" stroke="black" d="M1117.14,-431.88C1095.27,-422.54 1067.96,-410.88 1044.55,-400.89" style=""/>
<polygon fill="black" stroke="black" points="1046.07,-397.73 1035.5,-397.03 1043.32,-404.17 1046.07,-397.73" style=""/>
</g>
<!-- [root] provider[&quot;registry.terraform.io/hashicorp/null&quot;] (close) -->
<g id="node20" class="node" pointer-events="visible" data-name="[root] provider[&quot;registry.terraform.io/hashicorp/null&quot;] (close)">

<ellipse fill="none" stroke="black" cx="1812.26" cy="-450" rx="247.27" ry="18" style=""/>
<text text-anchor="middle" x="1812.26" y="-445.8" font-family="Times,serif" font-size="14.00" style="">[root] provider["registry.terraform.io/hashicorp/null"] (close)</text>
</g>
<!-- [root] provider[&quot;registry.terraform.io/hashicorp/null&quot;] (close)&#45;&gt;[root] null_resource.function_dependencies (expand) -->
<g id="edge22" class="edge" data-name="[root] provider[&quot;registry.terraform.io/hashicorp/null&quot;] (close)-&gt;[root] null_resource.function_dependencies (expand)">

<path fill="none" stroke="black" d="M1812.69,-431.54C1813.86,-383.76 1817.12,-250.51 1818.56,-191.61" style=""/>
<polygon fill="black" stroke="black" points="1822.06,-191.83 1818.8,-181.74 1815.06,-191.66 1822.06,-191.83" style=""/>
</g>
<!-- [root] root -->
<g id="node21" class="node" pointer-events="visible" data-name="[root] root">

<ellipse fill="none" stroke="black" cx="1530.26" cy="-522" rx="50.99" ry="18" style=""/>
<text text-anchor="middle" x="1530.26" y="-517.8" font-family="Times,serif" font-size="14.00" style="">[root] root</text>
</g>
<!-- [root] root&#45;&gt;[root] provider[&quot;registry.terraform.io/hashicorp/archive&quot;] (close) -->
<g id="edge23" class="edge" data-name="[root] root-&gt;[root] provider[&quot;registry.terraform.io/hashicorp/archive&quot;] (close)">

<path fill="none" stroke="black" d="M1530.26,-503.59C1530.26,-479.61 1530.26,-436.14 1530.26,-407.42" style=""/>
<polygon fill="black" stroke="black" points="1533.76,-407.62 1530.26,-397.62 1526.76,-407.62 1533.76,-407.62" style=""/>
</g>
<!-- [root] root&#45;&gt;[root] provider[&quot;registry.terraform.io/hashicorp/azurerm&quot;] (close) -->
<g id="edge24" class="edge" data-name="[root] root-&gt;[root] provider[&quot;registry.terraform.io/hashicorp/azurerm&quot;] (close)">

<path fill="none" stroke="black" d="M1486.01,-512.7C1429.66,-502.12 1330.65,-483.54 1255.97,-469.52" style=""/>
<polygon fill="black" stroke="black" points="1256.64,-466.09 1246.16,-467.68 1255.35,-472.97 1256.64,-466.09" style=""/>
</g>
<!-- [root] root&#45;&gt;[root] provider[&quot;registry.terraform.io/hashicorp/null&quot;] (close) -->
<g id="edge25" class="edge" data-name="[root] root-&gt;[root] provider[&quot;registry.terraform.io/hashicorp/null&quot;] (close)">

<path fill="none" stroke="black" d="M1571.27,-510.82C1613.7,-500.29 1681.01,-483.58 1733.73,-470.5" style=""/>
<polygon fill="black" stroke="black" points="1734.41,-473.93 1743.27,-468.13 1732.72,-467.14 1734.41,-473.93" style=""/>
</g>
</g>
</svg>