<?xml version="1.0" standalone="no"?>
<svg xmlns="http://www.w3.org/2000/svg" xmlns:xlink="http://www.w3.org/1999/xlink" width="3398pt" height="692pt" viewBox="0.00 0.00 3398.27 692.00">
<g id="graph0" class="graph" transform="translate(4,688) scale(1)" data-name="">
<polygon fill="white" stroke="none" points="-4,4 -4,-688 3394.27,-688 3394.27,4 -4,4" style=""/>
<!-- [root] azurerm_application_insights.application_insights (expand) -->
<g id="node1" class="node" pointer-events="visible" data-name="[root] azurerm_application_insights.application_insights (expand)">

<polygon fill="none" stroke="black" points="2124.38,-180 1826.61,-180 1826.61,-144 2124.38,-144 2124.38,-180" style=""/>
<text text-anchor="middle" x="1975.5" y="-157.8" font-family="Times,serif" font-size="14.00" style="">azurerm_application_insights.application_insights</text>
</g>
<!-- [root] azurerm_resource_group.handball&#45;resource&#45;group (expand) -->
<g id="node3" class="node" pointer-events="visible" data-name="[root] azurerm_resource_group.handball-resource-group (expand)">

<polygon fill="none" stroke="black" points="2124.03,-108 1826.96,-108 1826.96,-72 2124.03,-72 2124.03,-108" style=""/>
<text text-anchor="middle" x="1975.5" y="-85.8" font-family="Times,serif" font-size="14.00" style="">azurerm_resource_group.handball-resource-group</text>
</g>
<!-- [root] azurerm_application_insights.application_insights (expand)&#45;&gt;[root] azurerm_resource_group.handball&#45;resource&#45;group (expand) -->
<g id="edge1" class="edge" data-name="[root] azurerm_application_insights.application_insights (expand)-&gt;[root] azurerm_resource_group.handball-resource-group (expand)">

<path fill="none" stroke="black" d="M1975.5,-143.7C1975.5,-136.41 1975.5,-127.73 1975.5,-119.54" style=""/>
<polygon fill="black" stroke="black" points="1979,-119.62 1975.5,-109.62 1972,-119.62 1979,-119.62" style=""/>
</g>
<!-- [root] azurerm_linux_function_app.handball&#45;linux&#45;function&#45;app (expand) -->
<g id="node2" class="node" pointer-events="visible" data-name="[root] azurerm_linux_function_app.handball-linux-function-app (expand)">

<polygon fill="none" stroke="black" points="2146.34,-396 1806.65,-396 1806.65,-360 2146.34,-360 2146.34,-396" style=""/>
<text text-anchor="middle" x="1976.5" y="-373.8" font-family="Times,serif" font-size="14.00" style="">azurerm_linux_function_app.handball-linux-function-app</text>
</g>
<!-- [root] azurerm_linux_function_app.handball&#45;linux&#45;function&#45;app (expand)&#45;&gt;[root] azurerm_application_insights.application_insights (expand) -->
<g id="edge2" class="edge" data-name="[root] azurerm_linux_function_app.handball-linux-function-app (expand)-&gt;[root] azurerm_application_insights.application_insights (expand)">

<path fill="none" stroke="black" d="M1976.41,-359.85C1976.24,-323.14 1975.84,-236.66 1975.63,-191.53" style=""/>
<polygon fill="black" stroke="black" points="1979.13,-191.73 1975.58,-181.75 1972.13,-191.76 1979.13,-191.73" style=""/>
</g>
<!-- [root] azurerm_service_plan.handball&#45;app&#45;service&#45;plan (expand) -->
<g id="node4" class="node" pointer-events="visible" data-name="[root] azurerm_service_plan.handball-app-service-plan (expand)">

<polygon fill="none" stroke="black" points="2373.25,-252 2083.74,-252 2083.74,-216 2373.25,-216 2373.25,-252" style=""/>
<text text-anchor="middle" x="2228.5" y="-229.8" font-family="Times,serif" font-size="14.00" style="">azurerm_service_plan.handball-app-service-plan</text>
</g>
<!-- [root] azurerm_linux_function_app.handball&#45;linux&#45;function&#45;app (expand)&#45;&gt;[root] azurerm_service_plan.handball&#45;app&#45;service&#45;plan (expand) -->
<g id="edge3" class="edge" data-name="[root] azurerm_linux_function_app.handball-linux-function-app (expand)-&gt;[root] azurerm_service_plan.handball-app-service-plan (expand)">

<path fill="none" stroke="black" d="M2146.59,-367.99C2323.66,-357.77 2577.46,-340.39 2592.5,-324 2603.31,-312.21 2602.96,-300.1 2592.5,-288 2578.33,-271.62 2477.03,-257.73 2384.88,-248.27" style=""/>
<polygon fill="black" stroke="black" points="2385.5,-244.82 2375.2,-247.3 2384.8,-251.78 2385.5,-244.82" style=""/>
</g>
<!-- [root] azurerm_storage_blob.storage_blob_function (expand) -->
<g id="node6" class="node" pointer-events="visible" data-name="[root] azurerm_storage_blob.storage_blob_function (expand)">

<polygon fill="none" stroke="black" points="2274.64,-324 2004.35,-324 2004.35,-288 2274.64,-288 2274.64,-324" style=""/>
<text text-anchor="middle" x="2139.5" y="-301.8" font-family="Times,serif" font-size="14.00" style="">azurerm_storage_blob.storage_blob_function</text>
</g>
<!-- [root] azurerm_linux_function_app.handball&#45;linux&#45;function&#45;app (expand)&#45;&gt;[root] azurerm_storage_blob.storage_blob_function (expand) -->
<g id="edge4" class="edge" data-name="[root] azurerm_linux_function_app.handball-linux-function-app (expand)-&gt;[root] azurerm_storage_blob.storage_blob_function (expand)">

<path fill="none" stroke="black" d="M2017.21,-359.52C2038.88,-350.21 2065.73,-338.68 2088.75,-328.79" style=""/>
<polygon fill="black" stroke="black" points="2089.82,-332.14 2097.63,-324.98 2087.06,-325.71 2089.82,-332.14" style=""/>
</g>
<!-- [root] azurerm_storage_container.handball&#45;storage&#45;container (expand) -->
<g id="node13" class="node" pointer-events="visible" data-name="[root] azurerm_storage_container.handball-storage-container (expand)">

<polygon fill="none" stroke="black" points="1532.4,-252 1210.59,-252 1210.59,-216 1532.4,-216 1532.4,-252" style=""/>
<text text-anchor="middle" x="1371.5" y="-229.8" font-family="Times,serif" font-size="14.00" style="">azurerm_storage_container.handball-storage-container</text>
</g>
<!-- [root] azurerm_linux_function_app.handball&#45;linux&#45;function&#45;app (expand)&#45;&gt;[root] azurerm_storage_container.handball&#45;storage&#45;container (expand) -->
<g id="edge5" class="edge" data-name="[root] azurerm_linux_function_app.handball-linux-function-app (expand)-&gt;[root] azurerm_storage_container.handball-storage-container (expand)">

<path fill="none" stroke="black" d="M1806.58,-361.73C1730.82,-352.94 1651.14,-340.35 1617.5,-324 1596.57,-313.83 1599.87,-299.23 1579.5,-288 1553.38,-273.6 1523.27,-263.02 1494.21,-255.29" style=""/>
<polygon fill="black" stroke="black" points="1495.15,-251.92 1484.6,-252.83 1493.42,-258.7 1495.15,-251.92" style=""/>
</g>
<!-- [root] data.azurerm_storage_account_blob_container_sas.sas (expand) -->
<g id="node17" class="node" pointer-events="visible" data-name="[root] data.azurerm_storage_account_blob_container_sas.sas (expand)">

<polygon fill="none" stroke="black" points="1948.82,-324 1626.17,-324 1626.17,-288 1948.82,-288 1948.82,-324" style=""/>
<text text-anchor="middle" x="1787.5" y="-301.8" font-family="Times,serif" font-size="14.00" style="">data.azurerm_storage_account_blob_container_sas.sas</text>
</g>
<!-- [root] azurerm_linux_function_app.handball&#45;linux&#45;function&#45;app (expand)&#45;&gt;[root] data.azurerm_storage_account_blob_container_sas.sas (expand) -->
<g id="edge6" class="edge" data-name="[root] azurerm_linux_function_app.handball-linux-function-app (expand)-&gt;[root] data.azurerm_storage_account_blob_container_sas.sas (expand)">

<path fill="none" stroke="black" d="M1929.29,-359.52C1903.71,-350.04 1871.9,-338.26 1844.9,-328.26" style=""/>
<polygon fill="black" stroke="black" points="1846.44,-325.1 1835.85,-324.91 1844.01,-331.66 1846.44,-325.1" style=""/>
</g>
<!-- [root] local.node_version (expand) -->
<g id="node27" class="node" pointer-events="visible" data-name="[root] local.node_version (expand)">

<ellipse fill="none" stroke="black" cx="2438.5" cy="-306" rx="145.26" ry="18" style=""/>
<text text-anchor="middle" x="2438.5" y="-301.8" font-family="Times,serif" font-size="14.00" style="">[root] local.node_version (expand)</text>
</g>
<!-- [root] azurerm_linux_function_app.handball&#45;linux&#45;function&#45;app (expand)&#45;&gt;[root] local.node_version (expand) -->
<g id="edge7" class="edge" data-name="[root] azurerm_linux_function_app.handball-linux-function-app (expand)-&gt;[root] local.node_version (expand)">

<path fill="none" stroke="black" d="M2091.89,-359.52C2167.64,-348.04 2265.75,-333.17 2338.24,-322.19" style=""/>
<polygon fill="black" stroke="black" points="2338.34,-325.72 2347.7,-320.76 2337.29,-318.79 2338.34,-325.72" style=""/>
</g>
<!-- [root] provider[&quot;registry.terraform.io/hashicorp/azurerm&quot;] -->
<g id="node23" class="node" pointer-events="visible" data-name="[root] provider[&quot;registry.terraform.io/hashicorp/azurerm&quot;]">

<polygon fill="none" stroke="black" points="1534.5,-36 1236.47,-18 1534.5,0 1832.52,-18 1534.5,-36" style=""/>
<text text-anchor="middle" x="1534.5" y="-13.8" font-family="Times,serif" font-size="14.00" style="">provider["registry.terraform.io/hashicorp/azurerm"]</text>
</g>
<!-- [root] azurerm_resource_group.handball&#45;resource&#45;group (expand)&#45;&gt;[root] provider[&quot;registry.terraform.io/hashicorp/azurerm&quot;] -->
<g id="edge10" class="edge" data-name="[root] azurerm_resource_group.handball-resource-group (expand)-&gt;[root] provider[&quot;registry.terraform.io/hashicorp/azurerm&quot;]">

<path fill="none" stroke="black" d="M1865.35,-71.52C1791.4,-59.78 1695.14,-44.5 1625.53,-33.45" style=""/>
<polygon fill="black" stroke="black" points="1626.08,-29.99 1615.66,-31.88 1624.98,-36.91 1626.08,-29.99" style=""/>
</g>
<!-- [root] local.location (expand) -->
<g id="node28" class="node" pointer-events="visible" data-name="[root] local.location (expand)">

<ellipse fill="none" stroke="black" cx="1975.5" cy="-18" rx="124.42" ry="18" style=""/>
<text text-anchor="middle" x="1975.5" y="-13.8" font-family="Times,serif" font-size="14.00" style="">[root] local.location (expand)</text>
</g>
<!-- [root] azurerm_resource_group.handball&#45;resource&#45;group (expand)&#45;&gt;[root] local.location (expand) -->
<g id="edge8" class="edge" data-name="[root] azurerm_resource_group.handball-resource-group (expand)-&gt;[root] local.location (expand)">

<path fill="none" stroke="black" d="M1975.5,-71.7C1975.5,-64.41 1975.5,-55.73 1975.5,-47.54" style=""/>
<polygon fill="black" stroke="black" points="1979,-47.62 1975.5,-37.62 1972,-47.62 1979,-47.62" style=""/>
</g>
<!-- [root] local.name (expand) -->
<g id="node29" class="node" pointer-events="visible" data-name="[root] local.name (expand)">

<ellipse fill="none" stroke="black" cx="2232.5" cy="-18" rx="114.03" ry="18" style=""/>
<text text-anchor="middle" x="2232.5" y="-13.8" font-family="Times,serif" font-size="14.00" style="">[root] local.name (expand)</text>
</g>
<!-- [root] azurerm_resource_group.handball&#45;resource&#45;group (expand)&#45;&gt;[root] local.name (expand) -->
<g id="edge9" class="edge" data-name="[root] azurerm_resource_group.handball-resource-group (expand)-&gt;[root] local.name (expand)">

<path fill="none" stroke="black" d="M2039.68,-71.52C2078.28,-61 2127.3,-47.65 2166.26,-37.04" style=""/>
<polygon fill="black" stroke="black" points="2166.77,-40.53 2175.5,-34.52 2164.93,-33.77 2166.77,-40.53" style=""/>
</g>
<!-- [root] azurerm_service_plan.handball&#45;app&#45;service&#45;plan (expand)&#45;&gt;[root] azurerm_resource_group.handball&#45;resource&#45;group (expand) -->
<g id="edge11" class="edge" data-name="[root] azurerm_service_plan.handball-app-service-plan (expand)-&gt;[root] azurerm_resource_group.handball-resource-group (expand)">

<path fill="none" stroke="black" d="M2209.71,-215.62C2198.58,-205.29 2184.21,-191.93 2171.5,-180 2154.53,-164.08 2153.44,-155.98 2133.5,-144 2111.03,-130.5 2084.67,-119.92 2060,-111.88" style=""/>
<polygon fill="black" stroke="black" points="2061.21,-108.59 2050.62,-108.93 2059.11,-115.27 2061.21,-108.59" style=""/>
</g>
<!-- [root] azurerm_storage_account.handball&#45;storage&#45;account (expand) -->
<g id="node5" class="node" pointer-events="visible" data-name="[root] azurerm_storage_account.handball-storage-account (expand)">

<polygon fill="none" stroke="black" points="1666.8,-180 1362.19,-180 1362.19,-144 1666.8,-144 1666.8,-180" style=""/>
<text text-anchor="middle" x="1514.5" y="-157.8" font-family="Times,serif" font-size="14.00" style="">azurerm_storage_account.handball-storage-account</text>
</g>
<!-- [root] azurerm_storage_account.handball&#45;storage&#45;account (expand)&#45;&gt;[root] azurerm_resource_group.handball&#45;resource&#45;group (expand) -->
<g id="edge12" class="edge" data-name="[root] azurerm_storage_account.handball-storage-account (expand)-&gt;[root] azurerm_resource_group.handball-resource-group (expand)">

<path fill="none" stroke="black" d="M1629.64,-143.52C1696.46,-133.37 1780.7,-120.58 1849.32,-110.16" style=""/>
<polygon fill="black" stroke="black" points="1849.77,-113.63 1859.13,-108.67 1848.72,-106.71 1849.77,-113.63" style=""/>
</g>
<!-- [root] azurerm_storage_container.handball&#45;deployments&#45;storage&#45;container (expand) -->
<g id="node12" class="node" pointer-events="visible" data-name="[root] azurerm_storage_container.handball-deployments-storage-container (expand)">

<polygon fill="none" stroke="black" points="1948.61,-252 1550.38,-252 1550.38,-216 1948.61,-216 1948.61,-252" style=""/>
<text text-anchor="middle" x="1749.5" y="-229.8" font-family="Times,serif" font-size="14.00" style="">azurerm_storage_container.handball-deployments-storage-container</text>
</g>
<!-- [root] azurerm_storage_blob.storage_blob_function (expand)&#45;&gt;[root] azurerm_storage_container.handball&#45;deployments&#45;storage&#45;container (expand) -->
<g id="edge13" class="edge" data-name="[root] azurerm_storage_blob.storage_blob_function (expand)-&gt;[root] azurerm_storage_container.handball-deployments-storage-container (expand)">

<path fill="none" stroke="black" d="M2042.09,-287.52C1986.03,-277.45 1915.46,-264.79 1857.68,-254.42" style=""/>
<polygon fill="black" stroke="black" points="1858.62,-251.03 1848.16,-252.71 1857.39,-257.92 1858.62,-251.03" style=""/>
</g>
<!-- [root] data.archive_file.function_zip (expand) -->
<g id="node15" class="node" pointer-events="visible" data-name="[root] data.archive_file.function_zip (expand)">

<polygon fill="none" stroke="black" points="2651.42,-252 2467.57,-252 2467.57,-216 2651.42,-216 2651.42,-252" style=""/>
<text text-anchor="middle" x="2559.5" y="-229.8" font-family="Times,serif" font-size="14.00" style="">data.archive_file.function_zip</text>
</g>
<!-- [root] azurerm_storage_blob.storage_blob_function (expand)&#45;&gt;[root] data.archive_file.function_zip (expand) -->
<g id="edge14" class="edge" data-name="[root] azurerm_storage_blob.storage_blob_function (expand)-&gt;[root] data.archive_file.function_zip (expand)">

<path fill="none" stroke="black" d="M2244.4,-287.52C2309.17,-276.72 2391.91,-262.93 2456.35,-252.19" style=""/>
<polygon fill="black" stroke="black" points="2456.56,-255.7 2465.85,-250.61 2455.41,-248.8 2456.56,-255.7" style=""/>
</g>
<!-- [root] azurerm_storage_blob.website&#45;asset&#45;blob (expand) -->
<g id="node7" class="node" pointer-events="visible" data-name="[root] azurerm_storage_blob.website-asset-blob (expand)">

<polygon fill="none" stroke="black" points="1042.86,-540 794.13,-540 794.13,-504 1042.86,-504 1042.86,-540" style=""/>
<text text-anchor="middle" x="918.5" y="-517.8" font-family="Times,serif" font-size="14.00" style="">azurerm_storage_blob.website-asset-blob</text>
</g>
<!-- [root] azurerm_storage_container.handball&#45;storage&#45;web&#45;container (expand) -->
<g id="node14" class="node" pointer-events="visible" data-name="[root] azurerm_storage_container.handball-storage-web-container (expand)">

<polygon fill="none" stroke="black" points="621.39,-468 271.6,-468 271.6,-432 621.39,-432 621.39,-468" style=""/>
<text text-anchor="middle" x="446.5" y="-445.8" font-family="Times,serif" font-size="14.00" style="">azurerm_storage_container.handball-storage-web-container</text>
</g>
<!-- [root] azurerm_storage_blob.website&#45;asset&#45;blob (expand)&#45;&gt;[root] azurerm_storage_container.handball&#45;storage&#45;web&#45;container (expand) -->
<g id="edge15" class="edge" data-name="[root] azurerm_storage_blob.website-asset-blob (expand)-&gt;[root] azurerm_storage_container.handball-storage-web-container (expand)">

<path fill="none" stroke="black" d="M800.61,-503.52C732.05,-493.35 645.58,-480.53 575.25,-470.1" style=""/>
<polygon fill="black" stroke="black" points="576.01,-466.67 565.6,-468.66 574.98,-473.59 576.01,-466.67" style=""/>
</g>
<!-- [root] local.websitePath (expand) -->
<g id="node30" class="node" pointer-events="visible" data-name="[root] local.websitePath (expand)">

<ellipse fill="none" stroke="black" cx="373.5" cy="-306" rx="140.04" ry="18" style=""/>
<text text-anchor="middle" x="373.5" y="-301.8" font-family="Times,serif" font-size="14.00" style="">[root] local.websitePath (expand)</text>
</g>
<!-- [root] azurerm_storage_blob.website&#45;asset&#45;blob (expand)&#45;&gt;[root] local.websitePath (expand) -->
<g id="edge16" class="edge" data-name="[root] azurerm_storage_blob.website-asset-blob (expand)-&gt;[root] local.websitePath (expand)">

<path fill="none" stroke="black" d="M887.22,-503.56C828.6,-471.46 697.52,-402.4 580.5,-360 540.5,-345.51 494.79,-333.36 456.53,-324.37" style=""/>
<polygon fill="black" stroke="black" points="457.43,-320.99 446.9,-322.14 455.85,-327.81 457.43,-320.99" style=""/>
</g>
<!-- [root] azurerm_storage_blob.website&#45;blob (expand) -->
<g id="node8" class="node" pointer-events="visible" data-name="[root] azurerm_storage_blob.website-blob (expand)">

<polygon fill="none" stroke="black" points="216.99,-540 0,-540 0,-504 216.99,-504 216.99,-540" style=""/>
<text text-anchor="middle" x="108.5" y="-517.8" font-family="Times,serif" font-size="14.00" style="">azurerm_storage_blob.website-blob</text>
</g>
<!-- [root] azurerm_storage_blob.website&#45;blob (expand)&#45;&gt;[root] azurerm_storage_container.handball&#45;storage&#45;web&#45;container (expand) -->
<g id="edge17" class="edge" data-name="[root] azurerm_storage_blob.website-blob (expand)-&gt;[root] azurerm_storage_container.handball-storage-web-container (expand)">

<path fill="none" stroke="black" d="M192.91,-503.52C241,-493.56 301.39,-481.05 351.17,-470.74" style=""/>
<polygon fill="black" stroke="black" points="351.71,-474.2 360.79,-468.75 350.29,-467.35 351.71,-474.2" style=""/>
</g>
<!-- [root] azurerm_storage_blob.website&#45;blob (expand)&#45;&gt;[root] local.websitePath (expand) -->
<g id="edge18" class="edge" data-name="[root] azurerm_storage_blob.website-blob (expand)-&gt;[root] local.websitePath (expand)">

<path fill="none" stroke="black" d="M124.16,-503.53C152.76,-472.26 216.25,-405.72 278.5,-360 294.13,-348.52 312.5,-337.72 328.91,-328.9" style=""/>
<polygon fill="black" stroke="black" points="330.27,-332.14 337.48,-324.39 327,-325.95 330.27,-332.14" style=""/>
</g>
<!-- [root] azurerm_storage_blob.website&#45;javascript&#45;blob (expand) -->
<g id="node9" class="node" pointer-events="visible" data-name="[root] azurerm_storage_blob.website-javascript-blob (expand)">

<polygon fill="none" stroke="black" points="1336.57,-540 1060.42,-540 1060.42,-504 1336.57,-504 1336.57,-540" style=""/>
<text text-anchor="middle" x="1198.5" y="-517.8" font-family="Times,serif" font-size="14.00" style="">azurerm_storage_blob.website-javascript-blob</text>
</g>
<!-- [root] azurerm_storage_blob.website&#45;javascript&#45;blob (expand)&#45;&gt;[root] azurerm_storage_container.handball&#45;storage&#45;web&#45;container (expand) -->
<g id="edge19" class="edge" data-name="[root] azurerm_storage_blob.website-javascript-blob (expand)-&gt;[root] azurerm_storage_container.handball-storage-web-container (expand)">

<path fill="none" stroke="black" d="M1060.01,-504.88C1057.15,-504.58 1054.31,-504.29 1051.5,-504 911.39,-489.76 752.79,-475.96 633.14,-466" style=""/>
<polygon fill="black" stroke="black" points="633.44,-462.52 623.19,-465.18 632.86,-469.49 633.44,-462.52" style=""/>
</g>
<!-- [root] local_file.output_urls (expand) -->
<g id="node19" class="node" pointer-events="visible" data-name="[root] local_file.output_urls (expand)">

<polygon fill="none" stroke="black" points="1266.64,-468 1130.35,-468 1130.35,-432 1266.64,-432 1266.64,-468" style=""/>
<text text-anchor="middle" x="1198.5" y="-445.8" font-family="Times,serif" font-size="14.00" style="">local_file.output_urls</text>
</g>
<!-- [root] azurerm_storage_blob.website&#45;javascript&#45;blob (expand)&#45;&gt;[root] local_file.output_urls (expand) -->
<g id="edge20" class="edge" data-name="[root] azurerm_storage_blob.website-javascript-blob (expand)-&gt;[root] local_file.output_urls (expand)">

<path fill="none" stroke="black" d="M1198.5,-503.7C1198.5,-496.41 1198.5,-487.73 1198.5,-479.54" style=""/>
<polygon fill="black" stroke="black" points="1202,-479.62 1198.5,-469.62 1195,-479.62 1202,-479.62" style=""/>
</g>
<!-- [root] azurerm_storage_blob.website&#45;manifest&#45;blob (expand) -->
<g id="node10" class="node" pointer-events="visible" data-name="[root] azurerm_storage_blob.website-manifest-blob (expand)">

<polygon fill="none" stroke="black" points="504.35,-540 234.64,-540 234.64,-504 504.35,-504 504.35,-540" style=""/>
<text text-anchor="middle" x="369.5" y="-517.8" font-family="Times,serif" font-size="14.00" style="">azurerm_storage_blob.website-manifest-blob</text>
</g>
<!-- [root] azurerm_storage_blob.website&#45;manifest&#45;blob (expand)&#45;&gt;[root] azurerm_storage_container.handball&#45;storage&#45;web&#45;container (expand) -->
<g id="edge21" class="edge" data-name="[root] azurerm_storage_blob.website-manifest-blob (expand)-&gt;[root] azurerm_storage_container.handball-storage-web-container (expand)">

<path fill="none" stroke="black" d="M388.53,-503.7C397.69,-495.37 408.85,-485.22 418.92,-476.07" style=""/>
<polygon fill="black" stroke="black" points="421.25,-478.68 426.29,-469.37 416.54,-473.5 421.25,-478.68" style=""/>
</g>
<!-- [root] azurerm_storage_blob.website&#45;manifest&#45;blob (expand)&#45;&gt;[root] local.websitePath (expand) -->
<g id="edge22" class="edge" data-name="[root] azurerm_storage_blob.website-manifest-blob (expand)-&gt;[root] local.websitePath (expand)">

<path fill="none" stroke="black" d="M306.4,-503.57C289.2,-495.61 272.55,-484.2 262.5,-468 254.06,-454.41 256.81,-446.96 262.5,-432 278.24,-390.56 314.71,-354.08 341.57,-331.38" style=""/>
<polygon fill="black" stroke="black" points="343.6,-334.24 349.09,-325.19 339.15,-328.84 343.6,-334.24" style=""/>
</g>
<!-- [root] azurerm_storage_blob.website&#45;styles&#45;blob (expand) -->
<g id="node11" class="node" pointer-events="visible" data-name="[root] azurerm_storage_blob.website-styles-blob (expand)">

<polygon fill="none" stroke="black" points="776.04,-540 522.95,-540 522.95,-504 776.04,-504 776.04,-540" style=""/>
<text text-anchor="middle" x="649.5" y="-517.8" font-family="Times,serif" font-size="14.00" style="">azurerm_storage_blob.website-styles-blob</text>
</g>
<!-- [root] azurerm_storage_blob.website&#45;styles&#45;blob (expand)&#45;&gt;[root] azurerm_storage_container.handball&#45;storage&#45;web&#45;container (expand) -->
<g id="edge23" class="edge" data-name="[root] azurerm_storage_blob.website-styles-blob (expand)-&gt;[root] azurerm_storage_container.handball-storage-web-container (expand)">

<path fill="none" stroke="black" d="M598.79,-503.52C571.2,-494 536.85,-482.16 507.77,-472.13" style=""/>
<polygon fill="black" stroke="black" points="508.93,-468.83 498.33,-468.88 506.65,-475.44 508.93,-468.83" style=""/>
</g>
<!-- [root] azurerm_storage_blob.website&#45;styles&#45;blob (expand)&#45;&gt;[root] local.websitePath (expand) -->
<g id="edge24" class="edge" data-name="[root] azurerm_storage_blob.website-styles-blob (expand)-&gt;[root] local.websitePath (expand)">

<path fill="none" stroke="black" d="M650.1,-503.74C649.89,-484.32 646.76,-452.78 630.5,-432 586.32,-375.57 510.18,-343.03 452.21,-325.38" style=""/>
<polygon fill="black" stroke="black" points="453.27,-322.04 442.69,-322.57 451.29,-328.76 453.27,-322.04" style=""/>
</g>
<!-- [root] azurerm_storage_container.handball&#45;deployments&#45;storage&#45;container (expand)&#45;&gt;[root] azurerm_storage_account.handball&#45;storage&#45;account (expand) -->
<g id="edge25" class="edge" data-name="[root] azurerm_storage_container.handball-deployments-storage-container (expand)-&gt;[root] azurerm_storage_account.handball-storage-account (expand)">

<path fill="none" stroke="black" d="M1690.8,-215.52C1658.29,-205.83 1617.69,-193.74 1583.65,-183.6" style=""/>
<polygon fill="black" stroke="black" points="1584.88,-180.31 1574.3,-180.81 1582.88,-187.02 1584.88,-180.31" style=""/>
</g>
<!-- [root] azurerm_storage_container.handball&#45;storage&#45;container (expand)&#45;&gt;[root] azurerm_storage_account.handball&#45;storage&#45;account (expand) -->
<g id="edge26" class="edge" data-name="[root] azurerm_storage_container.handball-storage-container (expand)-&gt;[root] azurerm_storage_account.handball-storage-account (expand)">

<path fill="none" stroke="black" d="M1407.21,-215.52C1425.95,-206.34 1449.11,-195.01 1469.1,-185.22" style=""/>
<polygon fill="black" stroke="black" points="1470.43,-188.47 1477.87,-180.93 1467.35,-182.18 1470.43,-188.47" style=""/>
</g>
<!-- [root] azurerm_storage_container.handball&#45;storage&#45;web&#45;container (expand)&#45;&gt;[root] azurerm_storage_account.handball&#45;storage&#45;account (expand) -->
<g id="edge27" class="edge" data-name="[root] azurerm_storage_container.handball-storage-web-container (expand)-&gt;[root] azurerm_storage_account.handball-storage-account (expand)">

<path fill="none" stroke="black" d="M383.83,-431.52C299.68,-405.12 166.97,-351.36 224.5,-288 298.84,-206.1 1020.11,-176.27 1350.59,-166.83" style=""/>
<polygon fill="black" stroke="black" points="1350.28,-170.34 1360.18,-166.56 1350.09,-163.35 1350.28,-170.34" style=""/>
</g>
<!-- [root] null_resource.function_dependencies (expand) -->
<g id="node20" class="node" pointer-events="visible" data-name="[root] null_resource.function_dependencies (expand)">

<polygon fill="none" stroke="black" points="3010.75,-180 2786.24,-180 2786.24,-144 3010.75,-144 3010.75,-180" style=""/>
<text text-anchor="middle" x="2898.5" y="-157.8" font-family="Times,serif" font-size="14.00" style="">null_resource.function_dependencies</text>
</g>
<!-- [root] data.archive_file.function_zip (expand)&#45;&gt;[root] null_resource.function_dependencies (expand) -->
<g id="edge28" class="edge" data-name="[root] data.archive_file.function_zip (expand)-&gt;[root] null_resource.function_dependencies (expand)">

<path fill="none" stroke="black" d="M2644.16,-215.52C2692.39,-205.56 2752.96,-193.05 2802.89,-182.74" style=""/>
<polygon fill="black" stroke="black" points="2803.46,-186.2 2812.54,-180.75 2802.04,-179.34 2803.46,-186.2" style=""/>
</g>
<!-- [root] provider[&quot;registry.terraform.io/hashicorp/archive&quot;] -->
<g id="node22" class="node" pointer-events="visible" data-name="[root] provider[&quot;registry.terraform.io/hashicorp/archive&quot;]">

<polygon fill="none" stroke="black" points="2474.5,-180 2180.56,-162 2474.5,-144 2768.43,-162 2474.5,-180" style=""/>
<text text-anchor="middle" x="2474.5" y="-157.8" font-family="Times,serif" font-size="14.00" style="">provider["registry.terraform.io/hashicorp/archive"]</text>
</g>
<!-- [root] data.archive_file.function_zip (expand)&#45;&gt;[root] provider[&quot;registry.terraform.io/hashicorp/archive&quot;] -->
<g id="edge29" class="edge" data-name="[root] data.archive_file.function_zip (expand)-&gt;[root] provider[&quot;registry.terraform.io/hashicorp/archive&quot;]">

<path fill="none" stroke="black" d="M2538.48,-215.7C2527.67,-206.79 2514.34,-195.81 2502.65,-186.19" style=""/>
<polygon fill="black" stroke="black" points="2505.21,-183.76 2495.27,-180.11 2500.76,-189.17 2505.21,-183.76" style=""/>
</g>
<!-- [root] data.azurerm_storage_account_blob_container_sas.function_results_sas (expand) -->
<g id="node16" class="node" pointer-events="visible" data-name="[root] data.azurerm_storage_account_blob_container_sas.function_results_sas (expand)">

<polygon fill="none" stroke="black" points="1570.03,-324 1150.96,-324 1150.96,-288 1570.03,-288 1570.03,-324" style=""/>
<text text-anchor="middle" x="1360.5" y="-301.8" font-family="Times,serif" font-size="14.00" style="">data.azurerm_storage_account_blob_container_sas.function_results_sas</text>
</g>
<!-- [root] data.azurerm_storage_account_blob_container_sas.function_results_sas (expand)&#45;&gt;[root] azurerm_storage_container.handball&#45;storage&#45;container (expand) -->
<g id="edge30" class="edge" data-name="[root] data.azurerm_storage_account_blob_container_sas.function_results_sas (expand)-&gt;[root] azurerm_storage_container.handball-storage-container (expand)">

<path fill="none" stroke="black" d="M1363.21,-287.7C1364.37,-280.32 1365.76,-271.52 1367.06,-263.25" style=""/>
<polygon fill="black" stroke="black" points="1370.48,-264.02 1368.57,-253.6 1363.56,-262.93 1370.48,-264.02" style=""/>
</g>
<!-- [root] data.azurerm_storage_account_blob_container_sas.sas (expand)&#45;&gt;[root] azurerm_storage_container.handball&#45;deployments&#45;storage&#45;container (expand) -->
<g id="edge31" class="edge" data-name="[root] data.azurerm_storage_account_blob_container_sas.sas (expand)-&gt;[root] azurerm_storage_container.handball-deployments-storage-container (expand)">

<path fill="none" stroke="black" d="M1778.1,-287.7C1773.91,-279.98 1768.88,-270.71 1764.21,-262.11" style=""/>
<polygon fill="black" stroke="black" points="1767.35,-260.55 1759.5,-253.43 1761.2,-263.89 1767.35,-260.55" style=""/>
</g>
<!-- [root] data.template_file.urls_template (expand) -->
<g id="node18" class="node" pointer-events="visible" data-name="[root] data.template_file.urls_template (expand)">

<polygon fill="none" stroke="black" points="1489.87,-396 1293.12,-396 1293.12,-360 1489.87,-360 1489.87,-396" style=""/>
<text text-anchor="middle" x="1391.5" y="-373.8" font-family="Times,serif" font-size="14.00" style="">data.template_file.urls_template</text>
</g>
<!-- [root] data.template_file.urls_template (expand)&#45;&gt;[root] data.azurerm_storage_account_blob_container_sas.function_results_sas (expand) -->
<g id="edge32" class="edge" data-name="[root] data.template_file.urls_template (expand)-&gt;[root] data.azurerm_storage_account_blob_container_sas.function_results_sas (expand)">

<path fill="none" stroke="black" d="M1383.83,-359.7C1380.45,-352.07 1376.4,-342.92 1372.63,-334.4" style=""/>
<polygon fill="black" stroke="black" points="1375.93,-333.21 1368.68,-325.49 1369.53,-336.05 1375.93,-333.21" style=""/>
</g>
<!-- [root] provider[&quot;registry.terraform.io/hashicorp/template&quot;] -->
<g id="node26" class="node" pointer-events="visible" data-name="[root] provider[&quot;registry.terraform.io/hashicorp/template&quot;]">

<polygon fill="none" stroke="black" points="832.5,-324 531.89,-306 832.5,-288 1133.1,-306 832.5,-324" style=""/>
<text text-anchor="middle" x="832.5" y="-301.8" font-family="Times,serif" font-size="14.00" style="">provider["registry.terraform.io/hashicorp/template"]</text>
</g>
<!-- [root] data.template_file.urls_template (expand)&#45;&gt;[root] provider[&quot;registry.terraform.io/hashicorp/template&quot;] -->
<g id="edge34" class="edge" data-name="[root] data.template_file.urls_template (expand)-&gt;[root] provider[&quot;registry.terraform.io/hashicorp/template&quot;]">

<path fill="none" stroke="black" d="M1292.7,-361.15C1289.94,-360.76 1287.2,-360.37 1284.5,-360 1170.85,-344.32 1040.72,-329.37 949.36,-319.38" style=""/>
<polygon fill="black" stroke="black" points="949.96,-315.92 939.64,-318.32 949.2,-322.88 949.96,-315.92" style=""/>
</g>
<!-- [root] data.template_file.urls_template (expand)&#45;&gt;[root] local.websitePath (expand) -->
<g id="edge33" class="edge" data-name="[root] data.template_file.urls_template (expand)-&gt;[root] local.websitePath (expand)">

<path fill="none" stroke="black" d="M1292.73,-360.9C1289.96,-360.58 1287.21,-360.28 1284.5,-360 947.23,-325.35 860.44,-351.23 522.5,-324 509.72,-322.97 496.35,-321.71 483.09,-320.34" style=""/>
<polygon fill="black" stroke="black" points="483.8,-316.9 473.49,-319.33 483.07,-323.86 483.8,-316.9" style=""/>
</g>
<!-- [root] local_file.output_urls (expand)&#45;&gt;[root] data.template_file.urls_template (expand) -->
<g id="edge35" class="edge" data-name="[root] local_file.output_urls (expand)-&gt;[root] data.template_file.urls_template (expand)">

<path fill="none" stroke="black" d="M1246.7,-431.52C1272.82,-422.04 1305.3,-410.26 1332.88,-400.26" style=""/>
<polygon fill="black" stroke="black" points="1333.94,-403.6 1342.15,-396.9 1331.55,-397.02 1333.94,-403.6" style=""/>
</g>
<!-- [root] provider[&quot;registry.terraform.io/hashicorp/local&quot;] -->
<g id="node24" class="node" pointer-events="visible" data-name="[root] provider[&quot;registry.terraform.io/hashicorp/local&quot;]">

<polygon fill="none" stroke="black" points="995.5,-396 715.35,-378 995.5,-360 1275.64,-378 995.5,-396" style=""/>
<text text-anchor="middle" x="995.5" y="-373.8" font-family="Times,serif" font-size="14.00" style="">provider["registry.terraform.io/hashicorp/local"]</text>
</g>
<!-- [root] local_file.output_urls (expand)&#45;&gt;[root] provider[&quot;registry.terraform.io/hashicorp/local&quot;] -->
<g id="edge36" class="edge" data-name="[root] local_file.output_urls (expand)-&gt;[root] provider[&quot;registry.terraform.io/hashicorp/local&quot;]">

<path fill="none" stroke="black" d="M1147.79,-431.52C1117.54,-421.08 1079.17,-407.85 1048.52,-397.28" style=""/>
<polygon fill="black" stroke="black" points="1050.05,-394.11 1039.45,-394.16 1047.76,-400.73 1050.05,-394.11" style=""/>
</g>
<!-- [root] provider[&quot;registry.terraform.io/hashicorp/null&quot;] -->
<g id="node25" class="node" pointer-events="visible" data-name="[root] provider[&quot;registry.terraform.io/hashicorp/null&quot;]">

<polygon fill="none" stroke="black" points="3115.5,-108 2840.94,-90 3115.5,-72 3390.05,-90 3115.5,-108" style=""/>
<text text-anchor="middle" x="3115.5" y="-85.8" font-family="Times,serif" font-size="14.00" style="">provider["registry.terraform.io/hashicorp/null"]</text>
</g>
<!-- [root] null_resource.function_dependencies (expand)&#45;&gt;[root] provider[&quot;registry.terraform.io/hashicorp/null&quot;] -->
<g id="edge38" class="edge" data-name="[root] null_resource.function_dependencies (expand)-&gt;[root] provider[&quot;registry.terraform.io/hashicorp/null&quot;]">

<path fill="none" stroke="black" d="M2952.69,-143.52C2985.4,-132.97 3026.98,-119.55 3059.93,-108.92" style=""/>
<polygon fill="black" stroke="black" points="3060.87,-112.3 3069.31,-105.9 3058.72,-105.64 3060.87,-112.3" style=""/>
</g>
<!-- [root] local.functionPath (expand) -->
<g id="node31" class="node" pointer-events="visible" data-name="[root] local.functionPath (expand)">

<ellipse fill="none" stroke="black" cx="2680.5" cy="-90" rx="142.9" ry="18" style=""/>
<text text-anchor="middle" x="2680.5" y="-85.8" font-family="Times,serif" font-size="14.00" style="">[root] local.functionPath (expand)</text>
</g>
<!-- [root] null_resource.function_dependencies (expand)&#45;&gt;[root] local.functionPath (expand) -->
<g id="edge37" class="edge" data-name="[root] null_resource.function_dependencies (expand)-&gt;[root] local.functionPath (expand)">

<path fill="none" stroke="black" d="M2844.05,-143.52C2813,-133.55 2774,-121.02 2741.87,-110.71" style=""/>
<polygon fill="black" stroke="black" points="2743.29,-107.49 2732.7,-107.76 2741.15,-114.15 2743.29,-107.49" style=""/>
</g>
<!-- [root] output.testing (destroy) -->
<g id="node21" class="node" pointer-events="visible" data-name="[root] output.testing (destroy)">

<polygon fill="none" stroke="black" points="2570.64,-612 2430.35,-612 2430.35,-576 2576.64,-576 2576.64,-606 2570.64,-612" style=""/>
<polyline fill="none" stroke="black" points="2570.64,-612 2570.64,-606" style=""/>
<polyline fill="none" stroke="black" points="2576.64,-606 2570.64,-606" style=""/>
<text text-anchor="middle" x="2503.5" y="-589.8" font-family="Times,serif" font-size="14.00" style="">output.testing (destroy)</text>
</g>
<!-- [root] provider[&quot;registry.terraform.io/hashicorp/archive&quot;] (close) -->
<g id="node32" class="node" pointer-events="visible" data-name="[root] provider[&quot;registry.terraform.io/hashicorp/archive&quot;] (close)">

<ellipse fill="none" stroke="black" cx="2605.5" cy="-378" rx="260.56" ry="18" style=""/>
<text text-anchor="middle" x="2605.5" y="-373.8" font-family="Times,serif" font-size="14.00" style="">[root] provider["registry.terraform.io/hashicorp/archive"] (close)</text>
</g>
<!-- [root] provider[&quot;registry.terraform.io/hashicorp/archive&quot;] (close)&#45;&gt;[root] data.archive_file.function_zip (expand) -->
<g id="edge39" class="edge" data-name="[root] provider[&quot;registry.terraform.io/hashicorp/archive&quot;] (close)-&gt;[root] data.archive_file.function_zip (expand)">

<path fill="none" stroke="black" d="M2615.74,-359.85C2625.36,-341.36 2636.72,-311.42 2625.5,-288 2620.05,-276.64 2610.84,-266.94 2601.01,-259.07" style=""/>
<polygon fill="black" stroke="black" points="2603.24,-256.36 2593.11,-253.25 2599.09,-262 2603.24,-256.36" style=""/>
</g>
<!-- [root] provider[&quot;registry.terraform.io/hashicorp/azurerm&quot;] (close) -->
<g id="node33" class="node" pointer-events="visible" data-name="[root] provider[&quot;registry.terraform.io/hashicorp/azurerm&quot;] (close)">

<ellipse fill="none" stroke="black" cx="918.5" cy="-594" rx="263.99" ry="18" style=""/>
<text text-anchor="middle" x="918.5" y="-589.8" font-family="Times,serif" font-size="14.00" style="">[root] provider["registry.terraform.io/hashicorp/azurerm"] (close)</text>
</g>
<!-- [root] provider[&quot;registry.terraform.io/hashicorp/azurerm&quot;] (close)&#45;&gt;[root] azurerm_linux_function_app.handball&#45;linux&#45;function&#45;app (expand) -->
<g id="edge40" class="edge" data-name="[root] provider[&quot;registry.terraform.io/hashicorp/azurerm&quot;] (close)-&gt;[root] azurerm_linux_function_app.handball-linux-function-app (expand)">

<path fill="none" stroke="black" d="M1159.18,-586.35C1345.68,-574.95 1608.08,-545.09 1825.5,-468 1869.43,-452.42 1914.85,-423.62 1944.25,-403" style=""/>
<polygon fill="black" stroke="black" points="1946.23,-405.88 1952.35,-397.23 1942.17,-400.18 1946.23,-405.88" style=""/>
</g>
<!-- [root] provider[&quot;registry.terraform.io/hashicorp/azurerm&quot;] (close)&#45;&gt;[root] azurerm_storage_blob.website&#45;asset&#45;blob (expand) -->
<g id="edge41" class="edge" data-name="[root] provider[&quot;registry.terraform.io/hashicorp/azurerm&quot;] (close)-&gt;[root] azurerm_storage_blob.website-asset-blob (expand)">

<path fill="none" stroke="black" d="M918.5,-575.7C918.5,-568.41 918.5,-559.73 918.5,-551.54" style=""/>
<polygon fill="black" stroke="black" points="922,-551.62 918.5,-541.62 915,-551.62 922,-551.62" style=""/>
</g>
<!-- [root] provider[&quot;registry.terraform.io/hashicorp/azurerm&quot;] (close)&#45;&gt;[root] azurerm_storage_blob.website&#45;blob (expand) -->
<g id="edge42" class="edge" data-name="[root] provider[&quot;registry.terraform.io/hashicorp/azurerm&quot;] (close)-&gt;[root] azurerm_storage_blob.website-blob (expand)">

<path fill="none" stroke="black" d="M722.88,-581.6C586.87,-572.82 401.13,-559.15 228.78,-540.33" style=""/>
<polygon fill="black" stroke="black" points="229.28,-536.86 218.96,-539.24 228.51,-543.82 229.28,-536.86" style=""/>
</g>
<!-- [root] provider[&quot;registry.terraform.io/hashicorp/azurerm&quot;] (close)&#45;&gt;[root] azurerm_storage_blob.website&#45;javascript&#45;blob (expand) -->
<g id="edge43" class="edge" data-name="[root] provider[&quot;registry.terraform.io/hashicorp/azurerm&quot;] (close)-&gt;[root] azurerm_storage_blob.website-javascript-blob (expand)">

<path fill="none" stroke="black" d="M985.92,-576.14C1025.58,-566.23 1075.98,-553.63 1117.75,-543.19" style=""/>
<polygon fill="black" stroke="black" points="1118.41,-546.63 1127.26,-540.81 1116.71,-539.84 1118.41,-546.63" style=""/>
</g>
<!-- [root] provider[&quot;registry.terraform.io/hashicorp/azurerm&quot;] (close)&#45;&gt;[root] azurerm_storage_blob.website&#45;manifest&#45;blob (expand) -->
<g id="edge44" class="edge" data-name="[root] provider[&quot;registry.terraform.io/hashicorp/azurerm&quot;] (close)-&gt;[root] azurerm_storage_blob.website-manifest-blob (expand)">

<path fill="none" stroke="black" d="M797.68,-577.59C714.57,-567 603.73,-552.87 515.65,-541.64" style=""/>
<polygon fill="black" stroke="black" points="516.34,-538.2 505.98,-540.4 515.46,-545.14 516.34,-538.2" style=""/>
</g>
<!-- [root] provider[&quot;registry.terraform.io/hashicorp/azurerm&quot;] (close)&#45;&gt;[root] azurerm_storage_blob.website&#45;styles&#45;blob (expand) -->
<g id="edge45" class="edge" data-name="[root] provider[&quot;registry.terraform.io/hashicorp/azurerm&quot;] (close)-&gt;[root] azurerm_storage_blob.website-styles-blob (expand)">

<path fill="none" stroke="black" d="M853.72,-576.14C815.78,-566.27 767.61,-553.74 727.58,-543.32" style=""/>
<polygon fill="black" stroke="black" points="728.54,-539.95 717.98,-540.82 726.78,-546.73 728.54,-539.95" style=""/>
</g>
<!-- [root] provider[&quot;registry.terraform.io/hashicorp/local&quot;] (close) -->
<g id="node34" class="node" pointer-events="visible" data-name="[root] provider[&quot;registry.terraform.io/hashicorp/local&quot;] (close)">

<ellipse fill="none" stroke="black" cx="2123.5" cy="-522" rx="251.26" ry="18" style=""/>
<text text-anchor="middle" x="2123.5" y="-517.8" font-family="Times,serif" font-size="14.00" style="">[root] provider["registry.terraform.io/hashicorp/local"] (close)</text>
</g>
<!-- [root] provider[&quot;registry.terraform.io/hashicorp/local&quot;] (close)&#45;&gt;[root] local_file.output_urls (expand) -->
<g id="edge46" class="edge" data-name="[root] provider[&quot;registry.terraform.io/hashicorp/local&quot;] (close)-&gt;[root] local_file.output_urls (expand)">

<path fill="none" stroke="black" d="M1885.82,-515.98C1718.27,-510.09 1488.6,-497.3 1278.11,-468.24" style=""/>
<polygon fill="black" stroke="black" points="1278.72,-464.79 1268.33,-466.87 1277.75,-471.72 1278.72,-464.79" style=""/>
</g>
<!-- [root] provider[&quot;registry.terraform.io/hashicorp/null&quot;] (close) -->
<g id="node35" class="node" pointer-events="visible" data-name="[root] provider[&quot;registry.terraform.io/hashicorp/null&quot;] (close)">

<ellipse fill="none" stroke="black" cx="2887.5" cy="-450" rx="247.27" ry="18" style=""/>
<text text-anchor="middle" x="2887.5" y="-445.8" font-family="Times,serif" font-size="14.00" style="">[root] provider["registry.terraform.io/hashicorp/null"] (close)</text>
</g>
<!-- [root] provider[&quot;registry.terraform.io/hashicorp/null&quot;] (close)&#45;&gt;[root] null_resource.function_dependencies (expand) -->
<g id="edge47" class="edge" data-name="[root] provider[&quot;registry.terraform.io/hashicorp/null&quot;] (close)-&gt;[root] null_resource.function_dependencies (expand)">

<path fill="none" stroke="black" d="M2888.17,-431.54C2890,-383.76 2895.13,-250.51 2897.39,-191.61" style=""/>
<polygon fill="black" stroke="black" points="2900.89,-191.87 2897.77,-181.74 2893.89,-191.6 2900.89,-191.87" style=""/>
</g>
<!-- [root] provider[&quot;registry.terraform.io/hashicorp/template&quot;] (close) -->
<g id="node36" class="node" pointer-events="visible" data-name="[root] provider[&quot;registry.terraform.io/hashicorp/template&quot;] (close)">

<ellipse fill="none" stroke="black" cx="1550.5" cy="-450" rx="265.72" ry="18" style=""/>
<text text-anchor="middle" x="1550.5" y="-445.8" font-family="Times,serif" font-size="14.00" style="">[root] provider["registry.terraform.io/hashicorp/template"] (close)</text>
</g>
<!-- [root] provider[&quot;registry.terraform.io/hashicorp/template&quot;] (close)&#45;&gt;[root] data.template_file.urls_template (expand) -->
<g id="edge48" class="edge" data-name="[root] provider[&quot;registry.terraform.io/hashicorp/template&quot;] (close)-&gt;[root] data.template_file.urls_template (expand)">

<path fill="none" stroke="black" d="M1511.6,-431.88C1490.49,-422.58 1464.15,-410.99 1441.53,-401.03" style=""/>
<polygon fill="black" stroke="black" points="1443.04,-397.87 1432.48,-397.04 1440.22,-404.28 1443.04,-397.87" style=""/>
</g>
<!-- [root] root -->
<g id="node37" class="node" pointer-events="visible" data-name="[root] root">

<ellipse fill="none" stroke="black" cx="2503.5" cy="-666" rx="50.99" ry="18" style=""/>
<text text-anchor="middle" x="2503.5" y="-661.8" font-family="Times,serif" font-size="14.00" style="">[root] root</text>
</g>
<!-- [root] root&#45;&gt;[root] output.testing (destroy) -->
<g id="edge50" class="edge" data-name="[root] root-&gt;[root] output.testing (destroy)">

<path fill="none" stroke="black" d="M2503.5,-647.7C2503.5,-640.41 2503.5,-631.73 2503.5,-623.54" style=""/>
<polygon fill="black" stroke="black" points="2507,-623.62 2503.5,-613.62 2500,-623.62 2507,-623.62" style=""/>
</g>
<!-- [root] root&#45;&gt;[root] provider[&quot;registry.terraform.io/hashicorp/archive&quot;] (close) -->
<g id="edge51" class="edge" data-name="[root] root-&gt;[root] provider[&quot;registry.terraform.io/hashicorp/archive&quot;] (close)">

<path fill="none" stroke="black" d="M2536.94,-652.04C2554.45,-643.43 2574.49,-630.3 2585.5,-612 2624.29,-547.48 2617.38,-454.18 2610.62,-407.65" style=""/>
<polygon fill="black" stroke="black" points="2614.09,-407.18 2609.08,-397.84 2607.17,-408.26 2614.09,-407.18" style=""/>
</g>
<!-- [root] root&#45;&gt;[root] provider[&quot;registry.terraform.io/hashicorp/azurerm&quot;] (close) -->
<g id="edge52" class="edge" data-name="[root] root-&gt;[root] provider[&quot;registry.terraform.io/hashicorp/azurerm&quot;] (close)">

<path fill="none" stroke="black" d="M2453,-662.77C2254.94,-654.02 1523.54,-621.72 1146.52,-605.07" style=""/>
<polygon fill="black" stroke="black" points="1146.85,-601.58 1136.71,-604.64 1146.54,-608.57 1146.85,-601.58" style=""/>
</g>
<!-- [root] root&#45;&gt;[root] provider[&quot;registry.terraform.io/hashicorp/local&quot;] (close) -->
<g id="edge53" class="edge" data-name="[root] root-&gt;[root] provider[&quot;registry.terraform.io/hashicorp/local&quot;] (close)">

<path fill="none" stroke="black" d="M2469.44,-652.27C2403.89,-627.78 2259.6,-573.86 2179.62,-543.97" style=""/>
<polygon fill="black" stroke="black" points="2181.27,-540.85 2170.67,-540.63 2178.82,-547.41 2181.27,-540.85" style=""/>
</g>
<!-- [root] root&#45;&gt;[root] provider[&quot;registry.terraform.io/hashicorp/null&quot;] (close) -->
<g id="edge54" class="edge" data-name="[root] root-&gt;[root] provider[&quot;registry.terraform.io/hashicorp/null&quot;] (close)">

<path fill="none" stroke="black" d="M2537.42,-652.15C2560.99,-642.57 2592.68,-628.35 2618.5,-612 2639.55,-598.67 2640.94,-590.1 2661.5,-576 2720.8,-535.33 2794.49,-496.56 2841.27,-473.27" style=""/>
<polygon fill="black" stroke="black" points="2842.64,-476.5 2850.05,-468.93 2839.54,-470.23 2842.64,-476.5" style=""/>
</g>
<!-- [root] root&#45;&gt;[root] provider[&quot;registry.terraform.io/hashicorp/template&quot;] (close) -->
<g id="edge55" class="edge" data-name="[root] root-&gt;[root] provider[&quot;registry.terraform.io/hashicorp/template&quot;] (close)">

<path fill="none" stroke="black" d="M2472.57,-651.28C2455.43,-642.29 2434.93,-629.04 2421.5,-612 2389.99,-572.04 2424.06,-534.71 2383.5,-504 2339.2,-470.47 2049.07,-458.09 1823.52,-453.56" style=""/>
<polygon fill="black" stroke="black" points="1823.74,-450.06 1813.67,-453.36 1823.6,-457.06 1823.74,-450.06" style=""/>
</g>
<!-- [root] local.currentDate (expand) -->
<g id="node38" class="node" pointer-events="visible" data-name="[root] local.currentDate (expand)">

<ellipse fill="none" stroke="black" cx="2809.5" cy="-594" rx="138.85" ry="18" style=""/>
<text text-anchor="middle" x="2809.5" y="-589.8" font-family="Times,serif" font-size="14.00" style="">[root] local.currentDate (expand)</text>
</g>
<!-- [root] root&#45;&gt;[root] local.currentDate (expand) -->
<g id="edge49" class="edge" data-name="[root] root-&gt;[root] local.currentDate (expand)">

<path fill="none" stroke="black" d="M2545.4,-655.41C2593.22,-644.47 2672.47,-626.35 2731.7,-612.8" style=""/>
<polygon fill="black" stroke="black" points="2732.44,-616.22 2741.41,-610.58 2730.88,-609.39 2732.44,-616.22" style=""/>
</g>
</g>
</svg>